<svg width="579" height="117" viewBox="0 0 579 117" fill="none" xmlns="http://www.w3.org/2000/svg">
<path d="M518.956 33.2658H534.172L557.966 90H542.184L526.159 48.0766L509.811 90H494.595L518.956 33.2658ZM509.163 68.6336H542.265V79.8024H509.163V68.6336ZM558.244 33.2658H573.055V90H558.244V33.2658Z" fill="#D641FF"/>
<path d="M518.956 33.2658H534.172L557.966 90H542.184L526.159 48.0766L509.811 90H494.595L518.956 33.2658ZM509.163 68.6336H542.265V79.8024H509.163V68.6336ZM558.244 33.2658H573.055V90H558.244V33.2658Z" fill="url(#paint0_radial_2075_182)"/>
<path d="M518.956 33.2658H534.172L557.966 90H542.184L526.159 48.0766L509.811 90H494.595L518.956 33.2658ZM509.163 68.6336H542.265V79.8024H509.163V68.6336ZM558.244 33.2658H573.055V90H558.244V33.2658Z" fill="url(#paint1_radial_2075_182)"/>
<path d="M518.956 33.2658H534.172L557.966 90H542.184L526.159 48.0766L509.811 90H494.595L518.956 33.2658ZM509.163 68.6336H542.265V79.8024H509.163V68.6336ZM558.244 33.2658H573.055V90H558.244V33.2658Z" fill="url(#paint2_radial_2075_182)"/>
<path d="M302.503 33.2658H318.609L335.039 66.6912L351.387 33.2658H367.493V90H354.382L354.301 53.661L339.814 84.3347H330.264L315.696 53.661V90H302.503V33.2658ZM373.68 46.296H388.006V90H373.68V46.296ZM380.884 26.2246C383.096 26.2246 384.903 26.953 386.306 28.4098C387.763 29.8126 388.491 31.6202 388.491 33.8323C388.491 35.9905 387.763 37.7981 386.306 39.2549C384.903 40.6577 383.096 41.3591 380.884 41.3591C378.671 41.3591 376.837 40.6577 375.38 39.2549C373.977 37.7981 373.276 35.9905 373.276 33.8323C373.276 31.6202 373.977 29.8126 375.38 28.4098C376.837 26.953 378.671 26.2246 380.884 26.2246ZM424.626 66.4484C424.626 63.9665 423.952 61.9971 422.603 60.5403C421.254 59.0835 419.446 58.3551 417.18 58.3551C414.482 58.4091 412.351 59.3803 410.786 61.2687C409.276 63.1032 408.52 65.4772 408.52 68.3908H405.121C405.121 63.4269 405.85 59.2723 407.306 55.9271C408.763 52.5279 410.813 49.965 413.457 48.2384C416.155 46.5119 419.365 45.6486 423.088 45.6486C426.272 45.6486 429.05 46.35 431.424 47.7528C433.852 49.1017 435.714 51.0441 437.009 53.58C438.304 56.062 438.951 59.0026 438.951 62.4018V90H424.626V66.4484ZM394.195 46.296H408.601V90H394.195V46.296ZM460.385 45.7295C464.108 45.7295 467.291 46.6468 469.935 48.4812C472.579 50.2618 474.629 52.8247 476.086 56.1699C477.542 59.5151 478.271 63.4539 478.271 67.9862C478.271 72.5724 477.569 76.5651 476.167 79.9643C474.764 83.3635 472.74 85.9803 470.097 87.8148C467.507 89.6493 464.377 90.5665 460.708 90.5665C456.608 90.5665 453.02 89.6223 449.944 87.7339C446.869 85.8454 444.495 83.2016 442.822 79.8024C441.149 76.4032 440.313 72.4375 440.313 67.9052C440.313 63.4269 441.123 59.5421 442.741 56.2508C444.414 52.9596 446.761 50.3967 449.782 48.5622C452.858 46.6737 456.392 45.7295 460.385 45.7295ZM464.269 57.222C462.381 57.222 460.708 57.6807 459.252 58.5979C457.849 59.5151 456.743 60.8101 455.933 62.4827C455.178 64.1553 454.8 66.0977 454.8 68.3099C454.8 70.5221 455.178 72.4645 455.933 74.1371C456.743 75.7557 457.849 77.0507 459.252 78.0219C460.708 78.9391 462.381 79.3977 464.269 79.3977C466.158 79.3977 467.803 78.9391 469.206 78.0219C470.609 77.0507 471.688 75.7557 472.444 74.1371C473.253 72.4645 473.658 70.5221 473.658 68.3099C473.658 66.0977 473.253 64.1553 472.444 62.4827C471.688 60.8101 470.609 59.5151 469.206 58.5979C467.803 57.6807 466.158 57.222 464.269 57.222ZM473.658 29.9475H488.064V90H473.658V29.9475Z" fill="#D641FF"/>
<path d="M302.503 33.2658H318.609L335.039 66.6912L351.387 33.2658H367.493V90H354.382L354.301 53.661L339.814 84.3347H330.264L315.696 53.661V90H302.503V33.2658ZM373.68 46.296H388.006V90H373.68V46.296ZM380.884 26.2246C383.096 26.2246 384.903 26.953 386.306 28.4098C387.763 29.8126 388.491 31.6202 388.491 33.8323C388.491 35.9905 387.763 37.7981 386.306 39.2549C384.903 40.6577 383.096 41.3591 380.884 41.3591C378.671 41.3591 376.837 40.6577 375.38 39.2549C373.977 37.7981 373.276 35.9905 373.276 33.8323C373.276 31.6202 373.977 29.8126 375.38 28.4098C376.837 26.953 378.671 26.2246 380.884 26.2246ZM424.626 66.4484C424.626 63.9665 423.952 61.9971 422.603 60.5403C421.254 59.0835 419.446 58.3551 417.18 58.3551C414.482 58.4091 412.351 59.3803 410.786 61.2687C409.276 63.1032 408.52 65.4772 408.52 68.3908H405.121C405.121 63.4269 405.85 59.2723 407.306 55.9271C408.763 52.5279 410.813 49.965 413.457 48.2384C416.155 46.5119 419.365 45.6486 423.088 45.6486C426.272 45.6486 429.05 46.35 431.424 47.7528C433.852 49.1017 435.714 51.0441 437.009 53.58C438.304 56.062 438.951 59.0026 438.951 62.4018V90H424.626V66.4484ZM394.195 46.296H408.601V90H394.195V46.296ZM460.385 45.7295C464.108 45.7295 467.291 46.6468 469.935 48.4812C472.579 50.2618 474.629 52.8247 476.086 56.1699C477.542 59.5151 478.271 63.4539 478.271 67.9862C478.271 72.5724 477.569 76.5651 476.167 79.9643C474.764 83.3635 472.74 85.9803 470.097 87.8148C467.507 89.6493 464.377 90.5665 460.708 90.5665C456.608 90.5665 453.02 89.6223 449.944 87.7339C446.869 85.8454 444.495 83.2016 442.822 79.8024C441.149 76.4032 440.313 72.4375 440.313 67.9052C440.313 63.4269 441.123 59.5421 442.741 56.2508C444.414 52.9596 446.761 50.3967 449.782 48.5622C452.858 46.6737 456.392 45.7295 460.385 45.7295ZM464.269 57.222C462.381 57.222 460.708 57.6807 459.252 58.5979C457.849 59.5151 456.743 60.8101 455.933 62.4827C455.178 64.1553 454.8 66.0977 454.8 68.3099C454.8 70.5221 455.178 72.4645 455.933 74.1371C456.743 75.7557 457.849 77.0507 459.252 78.0219C460.708 78.9391 462.381 79.3977 464.269 79.3977C466.158 79.3977 467.803 78.9391 469.206 78.0219C470.609 77.0507 471.688 75.7557 472.444 74.1371C473.253 72.4645 473.658 70.5221 473.658 68.3099C473.658 66.0977 473.253 64.1553 472.444 62.4827C471.688 60.8101 470.609 59.5151 469.206 58.5979C467.803 57.6807 466.158 57.222 464.269 57.222ZM473.658 29.9475H488.064V90H473.658V29.9475Z" fill="url(#paint3_radial_2075_182)"/>
<path d="M302.503 33.2658H318.609L335.039 66.6912L351.387 33.2658H367.493V90H354.382L354.301 53.661L339.814 84.3347H330.264L315.696 53.661V90H302.503V33.2658ZM373.68 46.296H388.006V90H373.68V46.296ZM380.884 26.2246C383.096 26.2246 384.903 26.953 386.306 28.4098C387.763 29.8126 388.491 31.6202 388.491 33.8323C388.491 35.9905 387.763 37.7981 386.306 39.2549C384.903 40.6577 383.096 41.3591 380.884 41.3591C378.671 41.3591 376.837 40.6577 375.38 39.2549C373.977 37.7981 373.276 35.9905 373.276 33.8323C373.276 31.6202 373.977 29.8126 375.38 28.4098C376.837 26.953 378.671 26.2246 380.884 26.2246ZM424.626 66.4484C424.626 63.9665 423.952 61.9971 422.603 60.5403C421.254 59.0835 419.446 58.3551 417.18 58.3551C414.482 58.4091 412.351 59.3803 410.786 61.2687C409.276 63.1032 408.52 65.4772 408.52 68.3908H405.121C405.121 63.4269 405.85 59.2723 407.306 55.9271C408.763 52.5279 410.813 49.965 413.457 48.2384C416.155 46.5119 419.365 45.6486 423.088 45.6486C426.272 45.6486 429.05 46.35 431.424 47.7528C433.852 49.1017 435.714 51.0441 437.009 53.58C438.304 56.062 438.951 59.0026 438.951 62.4018V90H424.626V66.4484ZM394.195 46.296H408.601V90H394.195V46.296ZM460.385 45.7295C464.108 45.7295 467.291 46.6468 469.935 48.4812C472.579 50.2618 474.629 52.8247 476.086 56.1699C477.542 59.5151 478.271 63.4539 478.271 67.9862C478.271 72.5724 477.569 76.5651 476.167 79.9643C474.764 83.3635 472.74 85.9803 470.097 87.8148C467.507 89.6493 464.377 90.5665 460.708 90.5665C456.608 90.5665 453.02 89.6223 449.944 87.7339C446.869 85.8454 444.495 83.2016 442.822 79.8024C441.149 76.4032 440.313 72.4375 440.313 67.9052C440.313 63.4269 441.123 59.5421 442.741 56.2508C444.414 52.9596 446.761 50.3967 449.782 48.5622C452.858 46.6737 456.392 45.7295 460.385 45.7295ZM464.269 57.222C462.381 57.222 460.708 57.6807 459.252 58.5979C457.849 59.5151 456.743 60.8101 455.933 62.4827C455.178 64.1553 454.8 66.0977 454.8 68.3099C454.8 70.5221 455.178 72.4645 455.933 74.1371C456.743 75.7557 457.849 77.0507 459.252 78.0219C460.708 78.9391 462.381 79.3977 464.269 79.3977C466.158 79.3977 467.803 78.9391 469.206 78.0219C470.609 77.0507 471.688 75.7557 472.444 74.1371C473.253 72.4645 473.658 70.5221 473.658 68.3099C473.658 66.0977 473.253 64.1553 472.444 62.4827C471.688 60.8101 470.609 59.5151 469.206 58.5979C467.803 57.6807 466.158 57.222 464.269 57.222ZM473.658 29.9475H488.064V90H473.658V29.9475Z" fill="url(#paint4_radial_2075_182)"/>
<path d="M302.503 33.2658H318.609L335.039 66.6912L351.387 33.2658H367.493V90H354.382L354.301 53.661L339.814 84.3347H330.264L315.696 53.661V90H302.503V33.2658ZM373.68 46.296H388.006V90H373.68V46.296ZM380.884 26.2246C383.096 26.2246 384.903 26.953 386.306 28.4098C387.763 29.8126 388.491 31.6202 388.491 33.8323C388.491 35.9905 387.763 37.7981 386.306 39.2549C384.903 40.6577 383.096 41.3591 380.884 41.3591C378.671 41.3591 376.837 40.6577 375.38 39.2549C373.977 37.7981 373.276 35.9905 373.276 33.8323C373.276 31.6202 373.977 29.8126 375.38 28.4098C376.837 26.953 378.671 26.2246 380.884 26.2246ZM424.626 66.4484C424.626 63.9665 423.952 61.9971 422.603 60.5403C421.254 59.0835 419.446 58.3551 417.18 58.3551C414.482 58.4091 412.351 59.3803 410.786 61.2687C409.276 63.1032 408.52 65.4772 408.52 68.3908H405.121C405.121 63.4269 405.85 59.2723 407.306 55.9271C408.763 52.5279 410.813 49.965 413.457 48.2384C416.155 46.5119 419.365 45.6486 423.088 45.6486C426.272 45.6486 429.05 46.35 431.424 47.7528C433.852 49.1017 435.714 51.0441 437.009 53.58C438.304 56.062 438.951 59.0026 438.951 62.4018V90H424.626V66.4484ZM394.195 46.296H408.601V90H394.195V46.296ZM460.385 45.7295C464.108 45.7295 467.291 46.6468 469.935 48.4812C472.579 50.2618 474.629 52.8247 476.086 56.1699C477.542 59.5151 478.271 63.4539 478.271 67.9862C478.271 72.5724 477.569 76.5651 476.167 79.9643C474.764 83.3635 472.74 85.9803 470.097 87.8148C467.507 89.6493 464.377 90.5665 460.708 90.5665C456.608 90.5665 453.02 89.6223 449.944 87.7339C446.869 85.8454 444.495 83.2016 442.822 79.8024C441.149 76.4032 440.313 72.4375 440.313 67.9052C440.313 63.4269 441.123 59.5421 442.741 56.2508C444.414 52.9596 446.761 50.3967 449.782 48.5622C452.858 46.6737 456.392 45.7295 460.385 45.7295ZM464.269 57.222C462.381 57.222 460.708 57.6807 459.252 58.5979C457.849 59.5151 456.743 60.8101 455.933 62.4827C455.178 64.1553 454.8 66.0977 454.8 68.3099C454.8 70.5221 455.178 72.4645 455.933 74.1371C456.743 75.7557 457.849 77.0507 459.252 78.0219C460.708 78.9391 462.381 79.3977 464.269 79.3977C466.158 79.3977 467.803 78.9391 469.206 78.0219C470.609 77.0507 471.688 75.7557 472.444 74.1371C473.253 72.4645 473.658 70.5221 473.658 68.3099C473.658 66.0977 473.253 64.1553 472.444 62.4827C471.688 60.8101 470.609 59.5151 469.206 58.5979C467.803 57.6807 466.158 57.222 464.269 57.222ZM473.658 29.9475H488.064V90H473.658V29.9475Z" fill="url(#paint5_radial_2075_182)"/>
<path d="M163.537 52.2851C161.702 49.965 159.517 48.1305 156.981 46.7816C154.445 45.4328 151.936 44.7583 149.454 44.7583C147.296 44.7583 145.273 45.19 143.384 46.0532C141.496 46.8626 139.85 48.0226 138.447 49.5334C137.044 50.9902 135.965 52.7437 135.21 54.794C134.455 56.7904 134.077 58.9756 134.077 61.3496C134.077 63.7237 134.455 65.9358 135.21 67.9862C135.965 69.9825 137.044 71.7361 138.447 73.2468C139.85 74.7576 141.496 75.9446 143.384 76.8079C145.273 77.6172 147.296 78.0219 149.454 78.0219C151.828 78.0219 154.256 77.4284 156.738 76.2413C159.274 75.0004 161.54 73.3547 163.537 71.3044L172.196 80.4499C170.146 82.6081 167.826 84.4965 165.236 86.1152C162.646 87.6799 159.922 88.8939 157.062 89.7572C154.256 90.6205 151.451 91.0521 148.645 91.0521C144.382 91.0521 140.444 90.3237 136.829 88.8669C133.214 87.3562 130.057 85.2789 127.359 82.6351C124.716 79.9373 122.638 76.8079 121.128 73.2468C119.617 69.6318 118.861 65.72 118.861 61.5115C118.861 57.3569 119.617 53.5261 121.128 50.019C122.638 46.4579 124.77 43.3555 127.521 40.7117C130.273 38.0678 133.483 36.0175 137.152 34.5607C140.875 33.1039 144.895 32.3755 149.211 32.3755C152.017 32.3755 154.823 32.7802 157.628 33.5895C160.434 34.3449 163.078 35.451 165.56 36.9078C168.042 38.3646 170.227 40.0912 172.116 42.0875L163.537 52.2851ZM193.05 45.8104C197.852 45.8104 202.034 46.7277 205.595 48.5622C209.21 50.3967 212.015 52.9865 214.012 56.3318C216.008 59.677 217.006 63.5888 217.006 68.0671C217.006 72.5454 216.008 76.4841 214.012 79.8833C212.015 83.2286 209.21 85.8454 205.595 87.7339C202.034 89.5684 197.852 90.4856 193.05 90.4856C188.248 90.4856 184.039 89.5684 180.424 87.7339C176.863 85.8454 174.085 83.2286 172.088 79.8833C170.146 76.4841 169.175 72.5454 169.175 68.0671C169.175 63.5888 170.146 59.677 172.088 56.3318C174.085 52.9865 176.863 50.3967 180.424 48.5622C184.039 46.7277 188.248 45.8104 193.05 45.8104ZM193.05 57.222C191.162 57.222 189.516 57.6807 188.113 58.5979C186.71 59.5151 185.604 60.8101 184.795 62.4827C184.039 64.1553 183.662 66.0977 183.662 68.3099C183.662 70.5221 184.039 72.4645 184.795 74.1371C185.604 75.7557 186.71 77.0237 188.113 77.9409C189.516 78.8582 191.162 79.3168 193.05 79.3168C194.939 79.3168 196.584 78.8582 197.987 77.9409C199.444 77.0237 200.55 75.7557 201.305 74.1371C202.115 72.4645 202.519 70.5221 202.519 68.3099C202.519 66.0977 202.115 64.1553 201.305 62.4827C200.55 60.8101 199.444 59.5151 197.987 58.5979C196.584 57.6807 194.939 57.222 193.05 57.222ZM247.979 58.6788C245.119 58.3551 242.61 58.5979 240.452 59.4072C238.348 60.2166 236.702 61.4575 235.515 63.1302C234.382 64.7488 233.816 66.7182 233.816 69.0383L230.417 68.3908C230.417 63.6427 231.118 59.5691 232.521 56.1699C233.978 52.7707 236.028 50.1808 238.672 48.4003C241.316 46.5658 244.418 45.6486 247.979 45.6486V58.6788ZM219.491 46.296H233.897V90H219.491V46.296ZM276.847 64.3442C276.901 62.5636 276.577 61.0529 275.876 59.8119C275.228 58.517 274.284 57.5188 273.043 56.8174C271.802 56.1159 270.372 55.7652 268.754 55.7652C266.865 55.7652 265.247 56.2778 263.898 57.303C262.603 58.2742 261.578 59.65 260.822 61.4306C260.121 63.1571 259.77 65.1805 259.77 67.5006C259.77 70.0365 260.202 72.2217 261.065 74.0562C261.928 75.8906 263.142 77.3205 264.707 78.3456C266.326 79.3168 268.187 79.8024 270.291 79.8024C274.176 79.8024 277.602 78.3186 280.57 75.3511L288.097 82.7969C285.884 85.2249 283.16 87.1134 279.922 88.4623C276.739 89.8112 273.097 90.4856 268.996 90.4856C264.248 90.4856 260.121 89.5684 256.614 87.7339C253.16 85.8994 250.49 83.3095 248.601 79.9643C246.767 76.619 245.85 72.7342 245.85 68.3099C245.85 63.7776 246.794 59.8389 248.682 56.4936C250.571 53.0944 253.241 50.4776 256.695 48.6431C260.148 46.7547 264.14 45.8104 268.673 45.8104C273.798 45.8104 278.034 46.8896 281.379 49.0478C284.778 51.152 287.26 54.1736 288.825 58.1123C290.444 62.0511 291.091 66.6642 290.767 71.9519H257.747V64.3442H276.847Z" fill="#D641FF"/>
<path d="M163.537 52.2851C161.702 49.965 159.517 48.1305 156.981 46.7816C154.445 45.4328 151.936 44.7583 149.454 44.7583C147.296 44.7583 145.273 45.19 143.384 46.0532C141.496 46.8626 139.85 48.0226 138.447 49.5334C137.044 50.9902 135.965 52.7437 135.21 54.794C134.455 56.7904 134.077 58.9756 134.077 61.3496C134.077 63.7237 134.455 65.9358 135.21 67.9862C135.965 69.9825 137.044 71.7361 138.447 73.2468C139.85 74.7576 141.496 75.9446 143.384 76.8079C145.273 77.6172 147.296 78.0219 149.454 78.0219C151.828 78.0219 154.256 77.4284 156.738 76.2413C159.274 75.0004 161.54 73.3547 163.537 71.3044L172.196 80.4499C170.146 82.6081 167.826 84.4965 165.236 86.1152C162.646 87.6799 159.922 88.8939 157.062 89.7572C154.256 90.6205 151.451 91.0521 148.645 91.0521C144.382 91.0521 140.444 90.3237 136.829 88.8669C133.214 87.3562 130.057 85.2789 127.359 82.6351C124.716 79.9373 122.638 76.8079 121.128 73.2468C119.617 69.6318 118.861 65.72 118.861 61.5115C118.861 57.3569 119.617 53.5261 121.128 50.019C122.638 46.4579 124.77 43.3555 127.521 40.7117C130.273 38.0678 133.483 36.0175 137.152 34.5607C140.875 33.1039 144.895 32.3755 149.211 32.3755C152.017 32.3755 154.823 32.7802 157.628 33.5895C160.434 34.3449 163.078 35.451 165.56 36.9078C168.042 38.3646 170.227 40.0912 172.116 42.0875L163.537 52.2851ZM193.05 45.8104C197.852 45.8104 202.034 46.7277 205.595 48.5622C209.21 50.3967 212.015 52.9865 214.012 56.3318C216.008 59.677 217.006 63.5888 217.006 68.0671C217.006 72.5454 216.008 76.4841 214.012 79.8833C212.015 83.2286 209.21 85.8454 205.595 87.7339C202.034 89.5684 197.852 90.4856 193.05 90.4856C188.248 90.4856 184.039 89.5684 180.424 87.7339C176.863 85.8454 174.085 83.2286 172.088 79.8833C170.146 76.4841 169.175 72.5454 169.175 68.0671C169.175 63.5888 170.146 59.677 172.088 56.3318C174.085 52.9865 176.863 50.3967 180.424 48.5622C184.039 46.7277 188.248 45.8104 193.05 45.8104ZM193.05 57.222C191.162 57.222 189.516 57.6807 188.113 58.5979C186.71 59.5151 185.604 60.8101 184.795 62.4827C184.039 64.1553 183.662 66.0977 183.662 68.3099C183.662 70.5221 184.039 72.4645 184.795 74.1371C185.604 75.7557 186.71 77.0237 188.113 77.9409C189.516 78.8582 191.162 79.3168 193.05 79.3168C194.939 79.3168 196.584 78.8582 197.987 77.9409C199.444 77.0237 200.55 75.7557 201.305 74.1371C202.115 72.4645 202.519 70.5221 202.519 68.3099C202.519 66.0977 202.115 64.1553 201.305 62.4827C200.55 60.8101 199.444 59.5151 197.987 58.5979C196.584 57.6807 194.939 57.222 193.05 57.222ZM247.979 58.6788C245.119 58.3551 242.61 58.5979 240.452 59.4072C238.348 60.2166 236.702 61.4575 235.515 63.1302C234.382 64.7488 233.816 66.7182 233.816 69.0383L230.417 68.3908C230.417 63.6427 231.118 59.5691 232.521 56.1699C233.978 52.7707 236.028 50.1808 238.672 48.4003C241.316 46.5658 244.418 45.6486 247.979 45.6486V58.6788ZM219.491 46.296H233.897V90H219.491V46.296ZM276.847 64.3442C276.901 62.5636 276.577 61.0529 275.876 59.8119C275.228 58.517 274.284 57.5188 273.043 56.8174C271.802 56.1159 270.372 55.7652 268.754 55.7652C266.865 55.7652 265.247 56.2778 263.898 57.303C262.603 58.2742 261.578 59.65 260.822 61.4306C260.121 63.1571 259.77 65.1805 259.77 67.5006C259.77 70.0365 260.202 72.2217 261.065 74.0562C261.928 75.8906 263.142 77.3205 264.707 78.3456C266.326 79.3168 268.187 79.8024 270.291 79.8024C274.176 79.8024 277.602 78.3186 280.57 75.3511L288.097 82.7969C285.884 85.2249 283.16 87.1134 279.922 88.4623C276.739 89.8112 273.097 90.4856 268.996 90.4856C264.248 90.4856 260.121 89.5684 256.614 87.7339C253.16 85.8994 250.49 83.3095 248.601 79.9643C246.767 76.619 245.85 72.7342 245.85 68.3099C245.85 63.7776 246.794 59.8389 248.682 56.4936C250.571 53.0944 253.241 50.4776 256.695 48.6431C260.148 46.7547 264.14 45.8104 268.673 45.8104C273.798 45.8104 278.034 46.8896 281.379 49.0478C284.778 51.152 287.26 54.1736 288.825 58.1123C290.444 62.0511 291.091 66.6642 290.767 71.9519H257.747V64.3442H276.847Z" fill="url(#paint6_radial_2075_182)"/>
<path d="M163.537 52.2851C161.702 49.965 159.517 48.1305 156.981 46.7816C154.445 45.4328 151.936 44.7583 149.454 44.7583C147.296 44.7583 145.273 45.19 143.384 46.0532C141.496 46.8626 139.85 48.0226 138.447 49.5334C137.044 50.9902 135.965 52.7437 135.21 54.794C134.455 56.7904 134.077 58.9756 134.077 61.3496C134.077 63.7237 134.455 65.9358 135.21 67.9862C135.965 69.9825 137.044 71.7361 138.447 73.2468C139.85 74.7576 141.496 75.9446 143.384 76.8079C145.273 77.6172 147.296 78.0219 149.454 78.0219C151.828 78.0219 154.256 77.4284 156.738 76.2413C159.274 75.0004 161.54 73.3547 163.537 71.3044L172.196 80.4499C170.146 82.6081 167.826 84.4965 165.236 86.1152C162.646 87.6799 159.922 88.8939 157.062 89.7572C154.256 90.6205 151.451 91.0521 148.645 91.0521C144.382 91.0521 140.444 90.3237 136.829 88.8669C133.214 87.3562 130.057 85.2789 127.359 82.6351C124.716 79.9373 122.638 76.8079 121.128 73.2468C119.617 69.6318 118.861 65.72 118.861 61.5115C118.861 57.3569 119.617 53.5261 121.128 50.019C122.638 46.4579 124.77 43.3555 127.521 40.7117C130.273 38.0678 133.483 36.0175 137.152 34.5607C140.875 33.1039 144.895 32.3755 149.211 32.3755C152.017 32.3755 154.823 32.7802 157.628 33.5895C160.434 34.3449 163.078 35.451 165.56 36.9078C168.042 38.3646 170.227 40.0912 172.116 42.0875L163.537 52.2851ZM193.05 45.8104C197.852 45.8104 202.034 46.7277 205.595 48.5622C209.21 50.3967 212.015 52.9865 214.012 56.3318C216.008 59.677 217.006 63.5888 217.006 68.0671C217.006 72.5454 216.008 76.4841 214.012 79.8833C212.015 83.2286 209.21 85.8454 205.595 87.7339C202.034 89.5684 197.852 90.4856 193.05 90.4856C188.248 90.4856 184.039 89.5684 180.424 87.7339C176.863 85.8454 174.085 83.2286 172.088 79.8833C170.146 76.4841 169.175 72.5454 169.175 68.0671C169.175 63.5888 170.146 59.677 172.088 56.3318C174.085 52.9865 176.863 50.3967 180.424 48.5622C184.039 46.7277 188.248 45.8104 193.05 45.8104ZM193.05 57.222C191.162 57.222 189.516 57.6807 188.113 58.5979C186.71 59.5151 185.604 60.8101 184.795 62.4827C184.039 64.1553 183.662 66.0977 183.662 68.3099C183.662 70.5221 184.039 72.4645 184.795 74.1371C185.604 75.7557 186.71 77.0237 188.113 77.9409C189.516 78.8582 191.162 79.3168 193.05 79.3168C194.939 79.3168 196.584 78.8582 197.987 77.9409C199.444 77.0237 200.55 75.7557 201.305 74.1371C202.115 72.4645 202.519 70.5221 202.519 68.3099C202.519 66.0977 202.115 64.1553 201.305 62.4827C200.55 60.8101 199.444 59.5151 197.987 58.5979C196.584 57.6807 194.939 57.222 193.05 57.222ZM247.979 58.6788C245.119 58.3551 242.61 58.5979 240.452 59.4072C238.348 60.2166 236.702 61.4575 235.515 63.1302C234.382 64.7488 233.816 66.7182 233.816 69.0383L230.417 68.3908C230.417 63.6427 231.118 59.5691 232.521 56.1699C233.978 52.7707 236.028 50.1808 238.672 48.4003C241.316 46.5658 244.418 45.6486 247.979 45.6486V58.6788ZM219.491 46.296H233.897V90H219.491V46.296ZM276.847 64.3442C276.901 62.5636 276.577 61.0529 275.876 59.8119C275.228 58.517 274.284 57.5188 273.043 56.8174C271.802 56.1159 270.372 55.7652 268.754 55.7652C266.865 55.7652 265.247 56.2778 263.898 57.303C262.603 58.2742 261.578 59.65 260.822 61.4306C260.121 63.1571 259.77 65.1805 259.77 67.5006C259.77 70.0365 260.202 72.2217 261.065 74.0562C261.928 75.8906 263.142 77.3205 264.707 78.3456C266.326 79.3168 268.187 79.8024 270.291 79.8024C274.176 79.8024 277.602 78.3186 280.57 75.3511L288.097 82.7969C285.884 85.2249 283.16 87.1134 279.922 88.4623C276.739 89.8112 273.097 90.4856 268.996 90.4856C264.248 90.4856 260.121 89.5684 256.614 87.7339C253.16 85.8994 250.49 83.3095 248.601 79.9643C246.767 76.619 245.85 72.7342 245.85 68.3099C245.85 63.7776 246.794 59.8389 248.682 56.4936C250.571 53.0944 253.241 50.4776 256.695 48.6431C260.148 46.7547 264.14 45.8104 268.673 45.8104C273.798 45.8104 278.034 46.8896 281.379 49.0478C284.778 51.152 287.26 54.1736 288.825 58.1123C290.444 62.0511 291.091 66.6642 290.767 71.9519H257.747V64.3442H276.847Z" fill="url(#paint7_radial_2075_182)"/>
<path d="M163.537 52.2851C161.702 49.965 159.517 48.1305 156.981 46.7816C154.445 45.4328 151.936 44.7583 149.454 44.7583C147.296 44.7583 145.273 45.19 143.384 46.0532C141.496 46.8626 139.85 48.0226 138.447 49.5334C137.044 50.9902 135.965 52.7437 135.21 54.794C134.455 56.7904 134.077 58.9756 134.077 61.3496C134.077 63.7237 134.455 65.9358 135.21 67.9862C135.965 69.9825 137.044 71.7361 138.447 73.2468C139.85 74.7576 141.496 75.9446 143.384 76.8079C145.273 77.6172 147.296 78.0219 149.454 78.0219C151.828 78.0219 154.256 77.4284 156.738 76.2413C159.274 75.0004 161.54 73.3547 163.537 71.3044L172.196 80.4499C170.146 82.6081 167.826 84.4965 165.236 86.1152C162.646 87.6799 159.922 88.8939 157.062 89.7572C154.256 90.6205 151.451 91.0521 148.645 91.0521C144.382 91.0521 140.444 90.3237 136.829 88.8669C133.214 87.3562 130.057 85.2789 127.359 82.6351C124.716 79.9373 122.638 76.8079 121.128 73.2468C119.617 69.6318 118.861 65.72 118.861 61.5115C118.861 57.3569 119.617 53.5261 121.128 50.019C122.638 46.4579 124.77 43.3555 127.521 40.7117C130.273 38.0678 133.483 36.0175 137.152 34.5607C140.875 33.1039 144.895 32.3755 149.211 32.3755C152.017 32.3755 154.823 32.7802 157.628 33.5895C160.434 34.3449 163.078 35.451 165.56 36.9078C168.042 38.3646 170.227 40.0912 172.116 42.0875L163.537 52.2851ZM193.05 45.8104C197.852 45.8104 202.034 46.7277 205.595 48.5622C209.21 50.3967 212.015 52.9865 214.012 56.3318C216.008 59.677 217.006 63.5888 217.006 68.0671C217.006 72.5454 216.008 76.4841 214.012 79.8833C212.015 83.2286 209.21 85.8454 205.595 87.7339C202.034 89.5684 197.852 90.4856 193.05 90.4856C188.248 90.4856 184.039 89.5684 180.424 87.7339C176.863 85.8454 174.085 83.2286 172.088 79.8833C170.146 76.4841 169.175 72.5454 169.175 68.0671C169.175 63.5888 170.146 59.677 172.088 56.3318C174.085 52.9865 176.863 50.3967 180.424 48.5622C184.039 46.7277 188.248 45.8104 193.05 45.8104ZM193.05 57.222C191.162 57.222 189.516 57.6807 188.113 58.5979C186.71 59.5151 185.604 60.8101 184.795 62.4827C184.039 64.1553 183.662 66.0977 183.662 68.3099C183.662 70.5221 184.039 72.4645 184.795 74.1371C185.604 75.7557 186.71 77.0237 188.113 77.9409C189.516 78.8582 191.162 79.3168 193.05 79.3168C194.939 79.3168 196.584 78.8582 197.987 77.9409C199.444 77.0237 200.55 75.7557 201.305 74.1371C202.115 72.4645 202.519 70.5221 202.519 68.3099C202.519 66.0977 202.115 64.1553 201.305 62.4827C200.55 60.8101 199.444 59.5151 197.987 58.5979C196.584 57.6807 194.939 57.222 193.05 57.222ZM247.979 58.6788C245.119 58.3551 242.61 58.5979 240.452 59.4072C238.348 60.2166 236.702 61.4575 235.515 63.1302C234.382 64.7488 233.816 66.7182 233.816 69.0383L230.417 68.3908C230.417 63.6427 231.118 59.5691 232.521 56.1699C233.978 52.7707 236.028 50.1808 238.672 48.4003C241.316 46.5658 244.418 45.6486 247.979 45.6486V58.6788ZM219.491 46.296H233.897V90H219.491V46.296ZM276.847 64.3442C276.901 62.5636 276.577 61.0529 275.876 59.8119C275.228 58.517 274.284 57.5188 273.043 56.8174C271.802 56.1159 270.372 55.7652 268.754 55.7652C266.865 55.7652 265.247 56.2778 263.898 57.303C262.603 58.2742 261.578 59.65 260.822 61.4306C260.121 63.1571 259.77 65.1805 259.77 67.5006C259.77 70.0365 260.202 72.2217 261.065 74.0562C261.928 75.8906 263.142 77.3205 264.707 78.3456C266.326 79.3168 268.187 79.8024 270.291 79.8024C274.176 79.8024 277.602 78.3186 280.57 75.3511L288.097 82.7969C285.884 85.2249 283.16 87.1134 279.922 88.4623C276.739 89.8112 273.097 90.4856 268.996 90.4856C264.248 90.4856 260.121 89.5684 256.614 87.7339C253.16 85.8994 250.49 83.3095 248.601 79.9643C246.767 76.619 245.85 72.7342 245.85 68.3099C245.85 63.7776 246.794 59.8389 248.682 56.4936C250.571 53.0944 253.241 50.4776 256.695 48.6431C260.148 46.7547 264.14 45.8104 268.673 45.8104C273.798 45.8104 278.034 46.8896 281.379 49.0478C284.778 51.152 287.26 54.1736 288.825 58.1123C290.444 62.0511 291.091 66.6642 290.767 71.9519H257.747V64.3442H276.847Z" fill="url(#paint8_radial_2075_182)"/>
<path opacity="0.8" d="M58.5005 104.199C60.2428 104.199 61.9092 104.124 63.5757 103.898C45.5473 101.709 31.6094 86.39 31.6094 67.9015C31.6094 47.8283 47.8956 31.6037 68.045 31.6037C86.6036 31.6037 101.981 45.4889 104.178 63.4492C104.329 61.789 104.481 60.1288 104.481 58.3932C104.481 33.1129 83.8766 12.5869 58.5005 12.5869C33.1244 12.5869 12.5205 33.0375 12.5205 58.3932C12.5205 83.7488 33.1244 104.199 58.5005 104.199Z" fill="#FF8704"/>
<path opacity="0.8" d="M58.5005 12.5869C56.7583 12.5869 55.0918 12.6624 53.4253 12.8888C71.4537 15.0772 85.3916 30.3963 85.3916 48.8848C85.3916 68.958 69.1055 85.1826 48.9561 85.1826C30.3974 85.1826 15.0202 71.2974 12.8235 53.3371C12.672 54.9973 12.5205 56.6575 12.5205 58.3932C12.5205 83.6734 33.1244 104.199 58.5005 104.199C83.8766 104.199 104.481 83.6734 104.481 58.3932C104.481 33.1129 83.9524 12.5869 58.5005 12.5869Z" fill="#83C52D"/>
<path opacity="0.8" d="M103.722 66.7195C104.036 65.0126 104.262 63.3661 104.339 61.6922C98.9267 78.9577 81.2893 89.8288 63.0375 86.4681C43.2212 82.8193 30.1424 63.9137 33.7774 44.1723C37.1254 25.9895 53.607 13.4477 71.7336 14.5601C70.122 14.1099 68.5104 13.6597 66.797 13.3442C41.8404 8.7489 17.8601 25.2045 13.2822 50.0667C8.70428 74.929 25.2505 98.8467 50.2071 103.442C75.1637 108.037 99.1439 91.5818 103.722 66.7195Z" fill="#F15583"/>
<path opacity="0.8" d="M15.0851 43.2511C14.5135 44.89 14.0383 46.4825 13.7062 48.1249C21.695 31.8899 40.7871 23.8432 58.3105 29.9549C77.336 36.5904 87.3707 57.2733 80.7602 76.2269C74.6716 93.6841 56.4663 103.559 38.7228 99.6879C40.2467 100.379 41.7705 101.071 43.4155 101.644C67.3762 110.001 93.5903 97.4052 101.916 73.5352C110.241 49.6651 97.5458 23.4988 73.5851 15.142C49.6245 6.78522 23.4352 19.3098 15.0851 43.2511Z" fill="#4D6BFE"/>

<defs>

<!-- Core -->
<radialGradient id="paint0_radial_2075_182" cx="0.5" cy="0.5" r="0.8" gradientUnits="objectBoundingBox">
<stop stop-color="#2F00FF" stop-opacity="0.9"/>
<stop offset="1" stop-color="#2F00FF" stop-opacity="0"/>
<animate attributeName="cx" values="0.5;1.0;0.5;0.0;0.5" dur="7s" repeatCount="indefinite"/>
<animate attributeName="cy" values="0.5;0.0;1.0;0.0;0.5" dur="7s" repeatCount="indefinite"/>
<animate attributeName="r" values="0.8;1.2;0.6;1.0;0.8" dur="7s" repeatCount="indefinite"/>
</radialGradient>
<radialGradient id="paint1_radial_2075_182" cx="0.4" cy="0.6" r="0.7" gradientUnits="objectBoundingBox">
<stop stop-color="#FF0066" stop-opacity="0.8"/>
<stop offset="1" stop-color="#FF0066" stop-opacity="0"/>
<animate attributeName="cx" values="0.4;0.9;0.6;0.1;0.4" dur="8s" repeatCount="indefinite"/>
<animate attributeName="cy" values="0.6;0.2;1.0;0.4;0.6" dur="8s" repeatCount="indefinite"/>
<animate attributeName="r" values="0.7;1.1;0.5;0.9;0.7" dur="8s" repeatCount="indefinite"/>
</radialGradient>
<radialGradient id="paint2_radial_2075_182" cx="0.6" cy="0.4" r="0.9" gradientUnits="objectBoundingBox">
<stop stop-color="#00F0E0" stop-opacity="0.7"/>
<stop offset="1" stop-color="#00F0E0" stop-opacity="0"/>
<animate attributeName="cx" values="0.6;0.2;0.4;1.0;0.6" dur="9s" repeatCount="indefinite"/>
<animate attributeName="cy" values="0.4;0.8;0.1;0.7;0.4" dur="9s" repeatCount="indefinite"/>
<animate attributeName="r" values="0.9;0.6;1.3;0.8;0.9" dur="9s" repeatCount="indefinite"/>
</radialGradient>

<!-- Mind -->
<radialGradient id="paint3_radial_2075_182" cx="0.3" cy="0.5" r="0.8" gradientUnits="objectBoundingBox">
<stop stop-color="#2F00FF" stop-opacity="0.8"/>
<stop offset="1" stop-color="#2F00FF" stop-opacity="0"/>
<animate attributeName="cx" values="0.3;0.8;0.9;0.2;0.3" dur="6.5s" repeatCount="indefinite"/>
<animate attributeName="cy" values="0.5;0.1;0.6;0.9;0.5" dur="6.5s" repeatCount="indefinite"/>
<animate attributeName="r" values="0.8;1.1;0.5;1.3;0.8" dur="6.5s" repeatCount="indefinite"/>
</radialGradient>
<radialGradient id="paint4_radial_2075_182" cx="0.7" cy="0.3" r="0.7" gradientUnits="objectBoundingBox">
<stop stop-color="#FF0066" stop-opacity="0.9"/>
<stop offset="1" stop-color="#FF0066" stop-opacity="0"/>
<animate attributeName="cx" values="0.7;0.2;0.1;0.8;0.7" dur="7.5s" repeatCount="indefinite"/>
<animate attributeName="cy" values="0.3;0.7;0.2;0.8;0.3" dur="7.5s" repeatCount="indefinite"/>
<animate attributeName="r" values="0.7;1.0;0.6;1.2;0.7" dur="7.5s" repeatCount="indefinite"/>
</radialGradient>
<radialGradient id="paint5_radial_2075_182" cx="0.2" cy="0.7" r="0.9" gradientUnits="objectBoundingBox">
<stop stop-color="#00F0E0" stop-opacity="0.7"/>
<stop offset="1" stop-color="#00F0E0" stop-opacity="0"/>
<animate attributeName="cx" values="0.2;0.6;1.0;0.3;0.2" dur="8.5s" repeatCount="indefinite"/>
<animate attributeName="cy" values="0.7;0.2;0.4;0.0;0.7" dur="8.5s" repeatCount="indefinite"/>
<animate attributeName="r" values="0.9;0.6;1.4;0.7;0.9" dur="8.5s" repeatCount="indefinite"/>
</radialGradient>

<!-- AI -->
<radialGradient id="paint6_radial_2075_182" cx="0.6" cy="0.6" r="0.8" gradientUnits="objectBoundingBox">
<stop stop-color="#2F00FF" stop-opacity="1.0"/>
<stop offset="1" stop-color="#2F00FF" stop-opacity="0"/>
<animate attributeName="cx" values="0.6;0.1;0.9;0.2;0.6" dur="6s" repeatCount="indefinite"/>
<animate attributeName="cy" values="0.6;0.1;0.2;0.9;0.6" dur="6s" repeatCount="indefinite"/>
<animate attributeName="r" values="0.8;1.3;0.4;1.1;0.8" dur="6s" repeatCount="indefinite"/>
</radialGradient>
<radialGradient id="paint7_radial_2075_182" cx="0.4" cy="0.4" r="0.7" gradientUnits="objectBoundingBox">
<stop stop-color="#FF0066" stop-opacity="0.9"/>
<stop offset="1" stop-color="#FF0066" stop-opacity="0"/>
<animate attributeName="cx" values="0.4;0.9;0.1;0.7;0.4" dur="7s" repeatCount="indefinite"/>
<animate attributeName="cy" values="0.4;0.8;0.3;0.0;0.4" dur="7s" repeatCount="indefinite"/>
<animate attributeName="r" values="0.7;0.5;1.2;0.6;0.7" dur="7s" repeatCount="indefinite"/>
</radialGradient>
<radialGradient id="paint8_radial_2075_182" cx="0.5" cy="0.3" r="0.9" gradientUnits="objectBoundingBox">
<stop stop-color="#00F0E0" stop-opacity="0.8"/>
<stop offset="1" stop-color="#00F0E0" stop-opacity="0"/>
<animate attributeName="cx" values="0.5;1.0;0.3;0.0;0.5" dur="5s" repeatCount="indefinite"/>
<animate attributeName="cy" values="0.3;0.6;1.0;0.2;0.3" dur="5s" repeatCount="indefinite"/>
<animate attributeName="r" values="0.9;0.6;1.5;0.7;0.9" dur="5s" repeatCount="indefinite"/>
</radialGradient>

</defs>
</svg>
