<svg width="328" height="53" viewBox="0 0 328 53" fill="none" xmlns="http://www.w3.org/2000/svg">
<path d="M135.021 11.6376H142.896L155.211 41H147.043L138.749 19.3028L130.288 41H122.414L135.021 11.6376ZM129.953 29.942H147.085V35.7223H129.953V29.942ZM155.355 11.6376H163.02V41H155.355V11.6376Z" fill="#D641FF"/>
<path d="M135.021 11.6376H142.896L155.211 41H147.043L138.749 19.3028L130.288 41H122.414L135.021 11.6376ZM129.953 29.942H147.085V35.7223H129.953V29.942ZM155.355 11.6376H163.02V41H155.355V11.6376Z" fill="url(#paint0_radial_2075_184)"/>
<path d="M135.021 11.6376H142.896L155.211 41H147.043L138.749 19.3028L130.288 41H122.414L135.021 11.6376ZM129.953 29.942H147.085V35.7223H129.953V29.942ZM155.355 11.6376H163.02V41H155.355V11.6376Z" fill="url(#paint1_radial_2075_184)"/>
<path d="M135.021 11.6376H142.896L155.211 41H147.043L138.749 19.3028L130.288 41H122.414L135.021 11.6376ZM129.953 29.942H147.085V35.7223H129.953V29.942ZM155.355 11.6376H163.02V41H155.355V11.6376Z" fill="url(#paint2_radial_2075_184)"/>
<path d="M60.9311 27.3121H82.8797V41.4865H78.758V30.462H64.8517V41.52H60.9311V27.3121ZM63.2768 32.3385H80.1654V35.2538H63.2768V32.3385ZM60.3615 12.6016H71.0174V15.718H60.3615V12.6016ZM56.4074 17.896H71.8216V21.0459H56.4074V17.896ZM63.2768 37.1974H80.1654V40.4142H63.2768V37.1974ZM62.8412 13.5063H66.6612V17.2259C66.6612 18.0748 66.5495 18.9907 66.3261 19.9736C66.1027 20.9342 65.7118 21.9172 65.1533 22.9224C64.5948 23.9054 63.7794 24.866 62.7071 25.8042C61.6348 26.7201 60.2498 27.569 58.552 28.3509C58.3062 27.9488 57.9265 27.4797 57.4127 26.9435C56.9212 26.4074 56.4521 25.9829 56.0053 25.6702C57.5914 25.067 58.8424 24.408 59.7583 23.6931C60.6742 22.9559 61.3444 22.2076 61.7689 21.448C62.2156 20.6661 62.5061 19.9066 62.6401 19.1694C62.7741 18.4322 62.8412 17.762 62.8412 17.1588V13.5063ZM59.7918 9.85384L63.3438 10.591C62.9417 12.0878 62.372 13.5175 61.6348 14.8802C60.8976 16.2429 60.1046 17.3822 59.2557 18.2982C59.0323 18.1194 58.7195 17.9072 58.3174 17.6615C57.9376 17.4158 57.5467 17.1812 57.1446 16.9578C56.7648 16.7344 56.4186 16.5557 56.1058 16.4216C56.977 15.6174 57.7254 14.6345 58.3509 13.4728C58.9988 12.3112 59.4791 11.1049 59.7918 9.85384ZM65.991 20.9119C66.3038 21.0459 66.7394 21.2693 67.2979 21.5821C67.8564 21.8948 68.4372 22.2299 69.0404 22.5873C69.6659 22.9224 70.2467 23.2464 70.7828 23.5591C71.319 23.8495 71.6988 24.0841 71.9221 24.2628L69.0739 26.8095C68.7388 26.5191 68.3143 26.184 67.8005 25.8042C67.309 25.4245 66.7841 25.0335 66.2256 24.6314C65.6894 24.207 65.1533 23.816 64.6171 23.4586C64.1033 23.1011 63.6565 22.7884 63.2768 22.5203L65.991 20.9119ZM76.6805 16.053V21.7496H81.7739V16.053H76.6805ZM72.9274 12.5346H85.7614V25.3016H72.9274V12.5346ZM103.32 36.3931H119.036V40.0791H103.32V36.3931ZM104.192 21.4815L106.705 19.1024C107.777 19.8843 108.883 20.7443 110.022 21.6826C111.161 22.5985 112.267 23.5479 113.34 24.5309C114.412 25.5138 115.395 26.4856 116.288 27.4462C117.204 28.4068 117.953 29.3003 118.533 30.1269L115.685 32.9082C115.171 32.0593 114.479 31.1545 113.608 30.1939C112.759 29.211 111.809 28.2057 110.759 27.1781C109.709 26.1505 108.615 25.1564 107.475 24.1958C106.358 23.2128 105.264 22.3081 104.192 21.4815ZM100.573 11.8309H118.466V15.4834H104.493V41.5871H100.573V11.8309ZM112.703 16.3881L116.389 17.628C115.406 21.0906 114.133 24.341 112.569 27.3792C111.027 30.4173 109.184 32.9864 107.04 35.0863C106.727 34.7288 106.28 34.3156 105.699 33.8464C105.141 33.3773 104.638 33.0087 104.192 32.7406C105.554 31.4673 106.772 29.9705 107.844 28.2504C108.939 26.5079 109.888 24.6314 110.692 22.6208C111.519 20.588 112.189 18.5104 112.703 16.3881ZM88.0066 16.9913H99.6343V20.7108H88.0066V16.9913ZM92.2287 10.0549H95.9482V41.52H92.2287V10.0549ZM92.1952 19.5715L94.4738 20.3422C94.2281 21.6826 93.9154 23.0676 93.5356 24.4974C93.1782 25.9271 92.7649 27.3345 92.2957 28.7195C91.8266 30.0822 91.3128 31.3668 90.7543 32.5731C90.2182 33.7571 89.6373 34.7735 89.0118 35.6224C88.8331 35.0863 88.5539 34.4719 88.1741 33.7794C87.8167 33.0869 87.4816 32.4949 87.1688 32.0034C87.7273 31.2662 88.2523 30.4062 88.7438 29.4232C89.2576 28.4403 89.7379 27.4015 90.1847 26.3069C90.6315 25.1899 91.0224 24.0617 91.3575 22.9224C91.6926 21.7608 91.9718 20.6438 92.1952 19.5715ZM95.8142 22.3528C96.0153 22.5985 96.3168 23.0118 96.719 23.5926C97.1211 24.1734 97.5567 24.8101 98.0258 25.5026C98.4949 26.1952 98.9194 26.843 99.2992 27.4462C99.6789 28.027 99.9582 28.4403 100.137 28.686L97.8918 31.6683C97.6907 31.1545 97.4226 30.5514 97.0876 29.8588C96.7748 29.1663 96.4174 28.4626 96.0153 27.7478C95.6355 27.0106 95.2669 26.3292 94.9095 25.7037C94.5744 25.0559 94.284 24.5197 94.0382 24.0953L95.8142 22.3528Z" fill="url(#paint3_linear_2075_184)"/>
<path opacity="0.8" d="M26.0744 46.4417C26.8509 46.4417 27.5937 46.4081 28.3364 46.3072C20.3011 45.3318 14.089 38.5041 14.089 30.2638C14.089 21.3171 21.3478 14.0858 30.3284 14.0858C38.6 14.0858 45.4536 20.2744 46.4327 28.2794C46.5002 27.5394 46.5677 26.7995 46.5677 26.0259C46.5677 14.7585 37.3845 5.60999 26.0744 5.60999C14.7642 5.60999 5.58105 14.7248 5.58105 26.0259C5.58105 37.3269 14.7642 46.4417 26.0744 46.4417Z" fill="#FF8704"/>
<path opacity="0.8" d="M26.0744 5.60999C25.2979 5.60999 24.5551 5.64362 23.8124 5.74452C31.8476 6.71991 38.0598 13.5476 38.0598 21.788C38.0598 30.7346 30.801 37.966 21.8204 37.966C13.5488 37.966 6.69519 31.7773 5.7161 23.7724C5.64858 24.5123 5.58105 25.2523 5.58105 26.0259C5.58105 37.2933 14.7642 46.4417 26.0744 46.4417C37.3845 46.4417 46.5677 37.2933 46.5677 26.0259C46.5677 14.7585 37.4183 5.60999 26.0744 5.60999Z" fill="#83C52D"/>
<path opacity="0.8" d="M46.2301 29.7369C46.3702 28.9761 46.471 28.2423 46.5054 27.4962C44.0929 35.1915 36.2319 40.0367 28.0971 38.5388C19.2649 36.9126 13.4357 28.4863 15.0558 19.6876C16.548 11.5835 23.8939 5.99359 31.9729 6.48941C31.2547 6.28875 30.5364 6.08809 29.7727 5.94747C18.6495 3.89935 7.96149 11.2336 5.9211 22.3147C3.88072 33.3959 11.2554 44.056 22.3786 46.1042C33.5017 48.1523 44.1897 40.818 46.2301 29.7369Z" fill="#F15583"/>
<path opacity="0.8" d="M6.72494 19.2771C6.47018 20.0075 6.25838 20.7173 6.11034 21.4493C9.67097 14.2134 18.1803 10.6269 25.9905 13.3509C34.4702 16.3084 38.9427 25.5268 35.9964 33.9744C33.2827 41.7551 25.1686 46.1562 17.2603 44.431C17.9395 44.7391 18.6186 45.0472 19.3518 45.303C30.0311 49.0276 41.7148 43.4136 45.4253 32.7747C49.1359 22.1358 43.4777 10.4734 32.7984 6.74881C22.1192 3.02418 10.4466 8.6064 6.72494 19.2771Z" fill="#4D6BFE"/>
<defs>
<radialGradient id="paint0_radial_2075_184" cx="0" cy="0" r="1" gradientUnits="userSpaceOnUse" gradientTransform="translate(144.003 5) rotate(59.2198) scale(33.7145 54.0626)">
<stop stop-color="#2F00FF"/>
<stop offset="1" stop-color="#2F00FF" stop-opacity="0"/>
</radialGradient>
<radialGradient id="paint1_radial_2075_184" cx="0" cy="0" r="1" gradientUnits="userSpaceOnUse" gradientTransform="translate(129.857 19.058) rotate(22.5096) scale(31.0845 22.6301)">
<stop stop-color="#FF0066"/>
<stop offset="1" stop-color="#FF0066" stop-opacity="0"/>
</radialGradient>
<radialGradient id="paint2_radial_2075_184" cx="0" cy="0" r="1" gradientUnits="userSpaceOnUse" gradientTransform="translate(169.309 26) rotate(-158.145) scale(37.6084 24.3967)">
<stop stop-color="#00F0E0"/>
<stop offset="1" stop-color="#00F0E0" stop-opacity="0"/>
</radialGradient>
<linearGradient id="paint3_linear_2075_184" x1="88.6837" y1="9.53772" x2="88.6837" y2="43.5377" gradientUnits="userSpaceOnUse">
<stop offset="0.802885" stop-color="#7F7F7F"/>
<stop offset="1" stop-color="#E5E5E5"/>
</linearGradient>
</defs>
</svg>
