<svg width="780" height="82" viewBox="0 0 780 82" fill="none" xmlns="http://www.w3.org/2000/svg">
<path d="M406.533 14.1132H421.749L445.543 70.8474H429.761L413.736 28.924L397.388 70.8474H382.172L406.533 14.1132ZM396.74 49.481H429.842V60.6498H396.74V49.481ZM445.821 14.1132H460.632V70.8474H445.821V14.1132Z" fill="#D641FF"/>
<path d="M406.533 14.1132H421.749L445.543 70.8474H429.761L413.736 28.924L397.388 70.8474H382.172L406.533 14.1132ZM396.74 49.481H429.842V60.6498H396.74V49.481ZM445.821 14.1132H460.632V70.8474H445.821V14.1132Z" fill="url(#paint0_radial_2065_249)"/>
<path d="M406.533 14.1132H421.749L445.543 70.8474H429.761L413.736 28.924L397.388 70.8474H382.172L406.533 14.1132ZM396.74 49.481H429.842V60.6498H396.74V49.481ZM445.821 14.1132H460.632V70.8474H445.821V14.1132Z" fill="url(#paint1_radial_2065_249)"/>
<path d="M406.533 14.1132H421.749L445.543 70.8474H429.761L413.736 28.924L397.388 70.8474H382.172L406.533 14.1132ZM396.74 49.481H429.842V60.6498H396.74V49.481ZM445.821 14.1132H460.632V70.8474H445.821V14.1132Z" fill="url(#paint2_radial_2065_249)"/>
<path d="M185.199 14.1133H201.304L217.734 47.5387L234.082 14.1133H250.188V70.8475H237.077L236.996 34.5084L222.509 65.1821H212.959L198.391 34.5084V70.8475H185.199V14.1133ZM256.376 27.1435H270.701V70.8475H256.376V27.1435ZM263.579 7.07207C265.791 7.07207 267.599 7.80047 269.001 9.25727C270.458 10.6601 271.187 12.4676 271.187 14.6798C271.187 16.838 270.458 18.6455 269.001 20.1023C267.599 21.5052 265.791 22.2066 263.579 22.2066C261.367 22.2066 259.532 21.5052 258.075 20.1023C256.673 18.6455 255.971 16.838 255.971 14.6798C255.971 12.4676 256.673 10.6601 258.075 9.25727C259.532 7.80047 261.367 7.07207 263.579 7.07207ZM307.321 47.2959C307.321 44.8139 306.647 42.8446 305.298 41.3878C303.949 39.931 302.142 39.2026 299.875 39.2026C297.178 39.2565 295.046 40.2277 293.482 42.1162C291.971 43.9507 291.216 46.3247 291.216 49.2383H287.816C287.816 44.2744 288.545 40.1198 290.002 36.7746C291.458 33.3754 293.509 30.8125 296.153 29.0859C298.85 27.3593 302.061 26.4961 305.784 26.4961C308.967 26.4961 311.746 27.1975 314.12 28.6003C316.548 29.9492 318.409 31.8916 319.704 34.4275C320.999 36.9095 321.647 39.85 321.647 43.2492V70.8475H307.321V47.2959ZM276.89 27.1435H291.297V70.8475H276.89V27.1435ZM343.08 26.577C346.803 26.577 349.986 27.4942 352.63 29.3287C355.274 31.1092 357.324 33.6721 358.781 37.0174C360.238 40.3626 360.966 44.3014 360.966 48.8336C360.966 53.4198 360.265 57.4126 358.862 60.8118C357.459 64.2109 355.436 66.8278 352.792 68.6623C350.202 70.4968 347.073 71.414 343.404 71.414C339.303 71.414 335.715 70.4698 332.64 68.5813C329.564 66.6929 327.19 64.0491 325.517 60.6499C323.845 57.2507 323.008 53.285 323.008 48.7527C323.008 44.2744 323.818 40.3896 325.436 37.0983C327.109 33.807 329.456 31.2441 332.478 29.4097C335.553 27.5212 339.087 26.577 343.08 26.577ZM346.965 38.0695C345.076 38.0695 343.404 38.5281 341.947 39.4454C340.544 40.3626 339.438 41.6575 338.629 43.3302C337.873 45.0028 337.496 46.9452 337.496 49.1574C337.496 51.3695 337.873 53.3119 338.629 54.9846C339.438 56.6032 340.544 57.8982 341.947 58.8694C343.404 59.7866 345.076 60.2452 346.965 60.2452C348.853 60.2452 350.499 59.7866 351.902 58.8694C353.304 57.8982 354.384 56.6032 355.139 54.9846C355.948 53.3119 356.353 51.3695 356.353 49.1574C356.353 46.9452 355.948 45.0028 355.139 43.3302C354.384 41.6575 353.304 40.3626 351.902 39.4454C350.499 38.5281 348.853 38.0695 346.965 38.0695ZM356.353 10.795H370.759V70.8475H356.353V10.795Z" fill="#D641FF"/>
<path d="M185.199 14.1133H201.304L217.734 47.5387L234.082 14.1133H250.188V70.8475H237.077L236.996 34.5084L222.509 65.1821H212.959L198.391 34.5084V70.8475H185.199V14.1133ZM256.376 27.1435H270.701V70.8475H256.376V27.1435ZM263.579 7.07207C265.791 7.07207 267.599 7.80047 269.001 9.25727C270.458 10.6601 271.187 12.4676 271.187 14.6798C271.187 16.838 270.458 18.6455 269.001 20.1023C267.599 21.5052 265.791 22.2066 263.579 22.2066C261.367 22.2066 259.532 21.5052 258.075 20.1023C256.673 18.6455 255.971 16.838 255.971 14.6798C255.971 12.4676 256.673 10.6601 258.075 9.25727C259.532 7.80047 261.367 7.07207 263.579 7.07207ZM307.321 47.2959C307.321 44.8139 306.647 42.8446 305.298 41.3878C303.949 39.931 302.142 39.2026 299.875 39.2026C297.178 39.2565 295.046 40.2277 293.482 42.1162C291.971 43.9507 291.216 46.3247 291.216 49.2383H287.816C287.816 44.2744 288.545 40.1198 290.002 36.7746C291.458 33.3754 293.509 30.8125 296.153 29.0859C298.85 27.3593 302.061 26.4961 305.784 26.4961C308.967 26.4961 311.746 27.1975 314.12 28.6003C316.548 29.9492 318.409 31.8916 319.704 34.4275C320.999 36.9095 321.647 39.85 321.647 43.2492V70.8475H307.321V47.2959ZM276.89 27.1435H291.297V70.8475H276.89V27.1435ZM343.08 26.577C346.803 26.577 349.986 27.4942 352.63 29.3287C355.274 31.1092 357.324 33.6721 358.781 37.0174C360.238 40.3626 360.966 44.3014 360.966 48.8336C360.966 53.4198 360.265 57.4126 358.862 60.8118C357.459 64.2109 355.436 66.8278 352.792 68.6623C350.202 70.4968 347.073 71.414 343.404 71.414C339.303 71.414 335.715 70.4698 332.64 68.5813C329.564 66.6929 327.19 64.0491 325.517 60.6499C323.845 57.2507 323.008 53.285 323.008 48.7527C323.008 44.2744 323.818 40.3896 325.436 37.0983C327.109 33.807 329.456 31.2441 332.478 29.4097C335.553 27.5212 339.087 26.577 343.08 26.577ZM346.965 38.0695C345.076 38.0695 343.404 38.5281 341.947 39.4454C340.544 40.3626 339.438 41.6575 338.629 43.3302C337.873 45.0028 337.496 46.9452 337.496 49.1574C337.496 51.3695 337.873 53.3119 338.629 54.9846C339.438 56.6032 340.544 57.8982 341.947 58.8694C343.404 59.7866 345.076 60.2452 346.965 60.2452C348.853 60.2452 350.499 59.7866 351.902 58.8694C353.304 57.8982 354.384 56.6032 355.139 54.9846C355.948 53.3119 356.353 51.3695 356.353 49.1574C356.353 46.9452 355.948 45.0028 355.139 43.3302C354.384 41.6575 353.304 40.3626 351.902 39.4454C350.499 38.5281 348.853 38.0695 346.965 38.0695ZM356.353 10.795H370.759V70.8475H356.353V10.795Z" fill="url(#paint3_radial_2065_249)"/>
<path d="M185.199 14.1133H201.304L217.734 47.5387L234.082 14.1133H250.188V70.8475H237.077L236.996 34.5084L222.509 65.1821H212.959L198.391 34.5084V70.8475H185.199V14.1133ZM256.376 27.1435H270.701V70.8475H256.376V27.1435ZM263.579 7.07207C265.791 7.07207 267.599 7.80047 269.001 9.25727C270.458 10.6601 271.187 12.4676 271.187 14.6798C271.187 16.838 270.458 18.6455 269.001 20.1023C267.599 21.5052 265.791 22.2066 263.579 22.2066C261.367 22.2066 259.532 21.5052 258.075 20.1023C256.673 18.6455 255.971 16.838 255.971 14.6798C255.971 12.4676 256.673 10.6601 258.075 9.25727C259.532 7.80047 261.367 7.07207 263.579 7.07207ZM307.321 47.2959C307.321 44.8139 306.647 42.8446 305.298 41.3878C303.949 39.931 302.142 39.2026 299.875 39.2026C297.178 39.2565 295.046 40.2277 293.482 42.1162C291.971 43.9507 291.216 46.3247 291.216 49.2383H287.816C287.816 44.2744 288.545 40.1198 290.002 36.7746C291.458 33.3754 293.509 30.8125 296.153 29.0859C298.85 27.3593 302.061 26.4961 305.784 26.4961C308.967 26.4961 311.746 27.1975 314.12 28.6003C316.548 29.9492 318.409 31.8916 319.704 34.4275C320.999 36.9095 321.647 39.85 321.647 43.2492V70.8475H307.321V47.2959ZM276.89 27.1435H291.297V70.8475H276.89V27.1435ZM343.08 26.577C346.803 26.577 349.986 27.4942 352.63 29.3287C355.274 31.1092 357.324 33.6721 358.781 37.0174C360.238 40.3626 360.966 44.3014 360.966 48.8336C360.966 53.4198 360.265 57.4126 358.862 60.8118C357.459 64.2109 355.436 66.8278 352.792 68.6623C350.202 70.4968 347.073 71.414 343.404 71.414C339.303 71.414 335.715 70.4698 332.64 68.5813C329.564 66.6929 327.19 64.0491 325.517 60.6499C323.845 57.2507 323.008 53.285 323.008 48.7527C323.008 44.2744 323.818 40.3896 325.436 37.0983C327.109 33.807 329.456 31.2441 332.478 29.4097C335.553 27.5212 339.087 26.577 343.08 26.577ZM346.965 38.0695C345.076 38.0695 343.404 38.5281 341.947 39.4454C340.544 40.3626 339.438 41.6575 338.629 43.3302C337.873 45.0028 337.496 46.9452 337.496 49.1574C337.496 51.3695 337.873 53.3119 338.629 54.9846C339.438 56.6032 340.544 57.8982 341.947 58.8694C343.404 59.7866 345.076 60.2452 346.965 60.2452C348.853 60.2452 350.499 59.7866 351.902 58.8694C353.304 57.8982 354.384 56.6032 355.139 54.9846C355.948 53.3119 356.353 51.3695 356.353 49.1574C356.353 46.9452 355.948 45.0028 355.139 43.3302C354.384 41.6575 353.304 40.3626 351.902 39.4454C350.499 38.5281 348.853 38.0695 346.965 38.0695ZM356.353 10.795H370.759V70.8475H356.353V10.795Z" fill="url(#paint4_radial_2065_249)"/>
<path d="M185.199 14.1133H201.304L217.734 47.5387L234.082 14.1133H250.188V70.8475H237.077L236.996 34.5084L222.509 65.1821H212.959L198.391 34.5084V70.8475H185.199V14.1133ZM256.376 27.1435H270.701V70.8475H256.376V27.1435ZM263.579 7.07207C265.791 7.07207 267.599 7.80047 269.001 9.25727C270.458 10.6601 271.187 12.4676 271.187 14.6798C271.187 16.838 270.458 18.6455 269.001 20.1023C267.599 21.5052 265.791 22.2066 263.579 22.2066C261.367 22.2066 259.532 21.5052 258.075 20.1023C256.673 18.6455 255.971 16.838 255.971 14.6798C255.971 12.4676 256.673 10.6601 258.075 9.25727C259.532 7.80047 261.367 7.07207 263.579 7.07207ZM307.321 47.2959C307.321 44.8139 306.647 42.8446 305.298 41.3878C303.949 39.931 302.142 39.2026 299.875 39.2026C297.178 39.2565 295.046 40.2277 293.482 42.1162C291.971 43.9507 291.216 46.3247 291.216 49.2383H287.816C287.816 44.2744 288.545 40.1198 290.002 36.7746C291.458 33.3754 293.509 30.8125 296.153 29.0859C298.85 27.3593 302.061 26.4961 305.784 26.4961C308.967 26.4961 311.746 27.1975 314.12 28.6003C316.548 29.9492 318.409 31.8916 319.704 34.4275C320.999 36.9095 321.647 39.85 321.647 43.2492V70.8475H307.321V47.2959ZM276.89 27.1435H291.297V70.8475H276.89V27.1435ZM343.08 26.577C346.803 26.577 349.986 27.4942 352.63 29.3287C355.274 31.1092 357.324 33.6721 358.781 37.0174C360.238 40.3626 360.966 44.3014 360.966 48.8336C360.966 53.4198 360.265 57.4126 358.862 60.8118C357.459 64.2109 355.436 66.8278 352.792 68.6623C350.202 70.4968 347.073 71.414 343.404 71.414C339.303 71.414 335.715 70.4698 332.64 68.5813C329.564 66.6929 327.19 64.0491 325.517 60.6499C323.845 57.2507 323.008 53.285 323.008 48.7527C323.008 44.2744 323.818 40.3896 325.436 37.0983C327.109 33.807 329.456 31.2441 332.478 29.4097C335.553 27.5212 339.087 26.577 343.08 26.577ZM346.965 38.0695C345.076 38.0695 343.404 38.5281 341.947 39.4454C340.544 40.3626 339.438 41.6575 338.629 43.3302C337.873 45.0028 337.496 46.9452 337.496 49.1574C337.496 51.3695 337.873 53.3119 338.629 54.9846C339.438 56.6032 340.544 57.8982 341.947 58.8694C343.404 59.7866 345.076 60.2452 346.965 60.2452C348.853 60.2452 350.499 59.7866 351.902 58.8694C353.304 57.8982 354.384 56.6032 355.139 54.9846C355.948 53.3119 356.353 51.3695 356.353 49.1574C356.353 46.9452 355.948 45.0028 355.139 43.3302C354.384 41.6575 353.304 40.3626 351.902 39.4454C350.499 38.5281 348.853 38.0695 346.965 38.0695ZM356.353 10.795H370.759V70.8475H356.353V10.795Z" fill="url(#paint5_radial_2065_249)"/>
<path d="M46.5366 33.1326C44.7021 30.8125 42.5169 28.978 39.981 27.6291C37.4451 26.2802 34.9362 25.6058 32.4542 25.6058C30.296 25.6058 28.2727 26.0374 26.3842 26.9007C24.4958 27.7101 22.8502 28.8701 21.4473 30.3809C20.0445 31.8376 18.9654 33.5912 18.21 35.6415C17.4546 37.6379 17.0769 39.8231 17.0769 42.1971C17.0769 44.5711 17.4546 46.7833 18.21 48.8336C18.9654 50.83 20.0445 52.5835 21.4473 54.0943C22.8502 55.605 24.4958 56.7921 26.3842 57.6554C28.2727 58.4647 30.296 58.8694 32.4542 58.8694C34.8283 58.8694 37.2563 58.2758 39.7382 57.0888C42.2741 55.8478 44.5403 54.2022 46.5366 52.1519L55.1965 61.2973C53.1462 63.4556 50.8261 65.344 48.2362 66.9627C45.6464 68.5274 42.9216 69.7414 40.062 70.6047C37.2563 71.468 34.4506 71.8996 31.6449 71.8996C27.3824 71.8996 23.4437 71.1712 19.8286 69.7144C16.2136 68.2037 13.0572 66.1264 10.3595 63.4825C7.71564 60.7848 5.63835 57.6554 4.1276 54.0943C2.61684 50.4793 1.86146 46.5675 1.86146 42.359C1.86146 38.2044 2.61684 34.3736 4.1276 30.8664C5.63835 27.3054 7.76959 24.2029 10.5213 21.5591C13.2731 18.9153 16.4834 16.865 20.1524 15.4082C23.8753 13.9514 27.895 13.223 32.2114 13.223C35.0171 13.223 37.8228 13.6277 40.6285 14.437C43.4342 15.1924 46.078 16.2985 48.5599 17.7553C51.0419 19.2121 53.2271 20.9386 55.1155 22.935L46.5366 33.1326ZM76.0501 26.6579C80.8521 26.6579 85.0336 27.5752 88.5947 29.4097C92.2097 31.2441 95.0154 33.834 97.0118 37.1792C99.0081 40.5245 100.006 44.4363 100.006 48.9146C100.006 53.3929 99.0081 57.3316 97.0118 60.7308C95.0154 64.0761 92.2097 66.6929 88.5947 68.5813C85.0336 70.4158 80.8521 71.3331 76.0501 71.3331C71.248 71.3331 67.0395 70.4158 63.4245 68.5813C59.8634 66.6929 57.0847 64.0761 55.0883 60.7308C53.146 57.3316 52.1748 53.3929 52.1748 48.9146C52.1748 44.4363 53.146 40.5245 55.0883 37.1792C57.0847 33.834 59.8634 31.2441 63.4245 29.4097C67.0395 27.5752 71.248 26.6579 76.0501 26.6579ZM76.0501 38.0695C74.1616 38.0695 72.516 38.5281 71.1131 39.4454C69.7103 40.3626 68.6042 41.6575 67.7949 43.3302C67.0395 45.0028 66.6618 46.9452 66.6618 49.1574C66.6618 51.3695 67.0395 53.3119 67.7949 54.9846C68.6042 56.6032 69.7103 57.8712 71.1131 58.7884C72.516 59.7057 74.1616 60.1643 76.0501 60.1643C77.9385 60.1643 79.5841 59.7057 80.987 58.7884C82.4438 57.8712 83.5499 56.6032 84.3053 54.9846C85.1146 53.3119 85.5192 51.3695 85.5192 49.1574C85.5192 46.9452 85.1146 45.0028 84.3053 43.3302C83.5499 41.6575 82.4438 40.3626 80.987 39.4454C79.5841 38.5281 77.9385 38.0695 76.0501 38.0695ZM130.979 39.5263C128.119 39.2026 125.61 39.4454 123.452 40.2547C121.348 41.064 119.702 42.305 118.515 43.9776C117.382 45.5963 116.816 47.5657 116.816 49.8858L113.417 49.2383C113.417 44.4902 114.118 40.4166 115.521 37.0174C116.978 33.6182 119.028 31.0283 121.672 29.2478C124.316 27.4133 127.418 26.4961 130.979 26.4961V39.5263ZM102.491 27.1435H116.897V70.8475H102.491V27.1435ZM159.847 45.1916C159.901 43.4111 159.577 41.9003 158.876 40.6594C158.228 39.3644 157.284 38.3663 156.043 37.6648C154.802 36.9634 153.372 36.6127 151.754 36.6127C149.865 36.6127 148.247 37.1253 146.898 38.1504C145.603 39.1216 144.578 40.4975 143.822 42.278C143.121 44.0046 142.77 46.0279 142.77 48.348C142.77 50.8839 143.202 53.0691 144.065 54.9036C144.928 56.7381 146.142 58.1679 147.707 59.1931C149.326 60.1643 151.187 60.6499 153.291 60.6499C157.176 60.6499 160.602 59.1661 163.57 56.1986L171.097 63.6444C168.884 66.0724 166.16 67.9609 162.922 69.3097C159.739 70.6586 156.097 71.3331 151.996 71.3331C147.248 71.3331 143.121 70.4158 139.614 68.5813C136.16 66.7469 133.49 64.157 131.601 60.8118C129.767 57.4665 128.85 53.5817 128.85 49.1574C128.85 44.6251 129.794 40.6863 131.682 37.3411C133.571 33.9419 136.241 31.3251 139.695 29.4906C143.148 27.6021 147.14 26.6579 151.673 26.6579C156.798 26.6579 161.034 27.737 164.379 29.8952C167.778 31.9995 170.26 35.021 171.825 38.9598C173.444 42.8985 174.091 47.5117 173.767 52.7994H140.747V45.1916H159.847Z" fill="#D641FF"/>
<path d="M46.5366 33.1326C44.7021 30.8125 42.5169 28.978 39.981 27.6291C37.4451 26.2802 34.9362 25.6058 32.4542 25.6058C30.296 25.6058 28.2727 26.0374 26.3842 26.9007C24.4958 27.7101 22.8502 28.8701 21.4473 30.3809C20.0445 31.8376 18.9654 33.5912 18.21 35.6415C17.4546 37.6379 17.0769 39.8231 17.0769 42.1971C17.0769 44.5711 17.4546 46.7833 18.21 48.8336C18.9654 50.83 20.0445 52.5835 21.4473 54.0943C22.8502 55.605 24.4958 56.7921 26.3842 57.6554C28.2727 58.4647 30.296 58.8694 32.4542 58.8694C34.8283 58.8694 37.2563 58.2758 39.7382 57.0888C42.2741 55.8478 44.5403 54.2022 46.5366 52.1519L55.1965 61.2973C53.1462 63.4556 50.8261 65.344 48.2362 66.9627C45.6464 68.5274 42.9216 69.7414 40.062 70.6047C37.2563 71.468 34.4506 71.8996 31.6449 71.8996C27.3824 71.8996 23.4437 71.1712 19.8286 69.7144C16.2136 68.2037 13.0572 66.1264 10.3595 63.4825C7.71564 60.7848 5.63835 57.6554 4.1276 54.0943C2.61684 50.4793 1.86146 46.5675 1.86146 42.359C1.86146 38.2044 2.61684 34.3736 4.1276 30.8664C5.63835 27.3054 7.76959 24.2029 10.5213 21.5591C13.2731 18.9153 16.4834 16.865 20.1524 15.4082C23.8753 13.9514 27.895 13.223 32.2114 13.223C35.0171 13.223 37.8228 13.6277 40.6285 14.437C43.4342 15.1924 46.078 16.2985 48.5599 17.7553C51.0419 19.2121 53.2271 20.9386 55.1155 22.935L46.5366 33.1326ZM76.0501 26.6579C80.8521 26.6579 85.0336 27.5752 88.5947 29.4097C92.2097 31.2441 95.0154 33.834 97.0118 37.1792C99.0081 40.5245 100.006 44.4363 100.006 48.9146C100.006 53.3929 99.0081 57.3316 97.0118 60.7308C95.0154 64.0761 92.2097 66.6929 88.5947 68.5813C85.0336 70.4158 80.8521 71.3331 76.0501 71.3331C71.248 71.3331 67.0395 70.4158 63.4245 68.5813C59.8634 66.6929 57.0847 64.0761 55.0883 60.7308C53.146 57.3316 52.1748 53.3929 52.1748 48.9146C52.1748 44.4363 53.146 40.5245 55.0883 37.1792C57.0847 33.834 59.8634 31.2441 63.4245 29.4097C67.0395 27.5752 71.248 26.6579 76.0501 26.6579ZM76.0501 38.0695C74.1616 38.0695 72.516 38.5281 71.1131 39.4454C69.7103 40.3626 68.6042 41.6575 67.7949 43.3302C67.0395 45.0028 66.6618 46.9452 66.6618 49.1574C66.6618 51.3695 67.0395 53.3119 67.7949 54.9846C68.6042 56.6032 69.7103 57.8712 71.1131 58.7884C72.516 59.7057 74.1616 60.1643 76.0501 60.1643C77.9385 60.1643 79.5841 59.7057 80.987 58.7884C82.4438 57.8712 83.5499 56.6032 84.3053 54.9846C85.1146 53.3119 85.5192 51.3695 85.5192 49.1574C85.5192 46.9452 85.1146 45.0028 84.3053 43.3302C83.5499 41.6575 82.4438 40.3626 80.987 39.4454C79.5841 38.5281 77.9385 38.0695 76.0501 38.0695ZM130.979 39.5263C128.119 39.2026 125.61 39.4454 123.452 40.2547C121.348 41.064 119.702 42.305 118.515 43.9776C117.382 45.5963 116.816 47.5657 116.816 49.8858L113.417 49.2383C113.417 44.4902 114.118 40.4166 115.521 37.0174C116.978 33.6182 119.028 31.0283 121.672 29.2478C124.316 27.4133 127.418 26.4961 130.979 26.4961V39.5263ZM102.491 27.1435H116.897V70.8475H102.491V27.1435ZM159.847 45.1916C159.901 43.4111 159.577 41.9003 158.876 40.6594C158.228 39.3644 157.284 38.3663 156.043 37.6648C154.802 36.9634 153.372 36.6127 151.754 36.6127C149.865 36.6127 148.247 37.1253 146.898 38.1504C145.603 39.1216 144.578 40.4975 143.822 42.278C143.121 44.0046 142.77 46.0279 142.77 48.348C142.77 50.8839 143.202 53.0691 144.065 54.9036C144.928 56.7381 146.142 58.1679 147.707 59.1931C149.326 60.1643 151.187 60.6499 153.291 60.6499C157.176 60.6499 160.602 59.1661 163.57 56.1986L171.097 63.6444C168.884 66.0724 166.16 67.9609 162.922 69.3097C159.739 70.6586 156.097 71.3331 151.996 71.3331C147.248 71.3331 143.121 70.4158 139.614 68.5813C136.16 66.7469 133.49 64.157 131.601 60.8118C129.767 57.4665 128.85 53.5817 128.85 49.1574C128.85 44.6251 129.794 40.6863 131.682 37.3411C133.571 33.9419 136.241 31.3251 139.695 29.4906C143.148 27.6021 147.14 26.6579 151.673 26.6579C156.798 26.6579 161.034 27.737 164.379 29.8952C167.778 31.9995 170.26 35.021 171.825 38.9598C173.444 42.8985 174.091 47.5117 173.767 52.7994H140.747V45.1916H159.847Z" fill="url(#paint6_radial_2065_249)"/>
<path d="M46.5366 33.1326C44.7021 30.8125 42.5169 28.978 39.981 27.6291C37.4451 26.2802 34.9362 25.6058 32.4542 25.6058C30.296 25.6058 28.2727 26.0374 26.3842 26.9007C24.4958 27.7101 22.8502 28.8701 21.4473 30.3809C20.0445 31.8376 18.9654 33.5912 18.21 35.6415C17.4546 37.6379 17.0769 39.8231 17.0769 42.1971C17.0769 44.5711 17.4546 46.7833 18.21 48.8336C18.9654 50.83 20.0445 52.5835 21.4473 54.0943C22.8502 55.605 24.4958 56.7921 26.3842 57.6554C28.2727 58.4647 30.296 58.8694 32.4542 58.8694C34.8283 58.8694 37.2563 58.2758 39.7382 57.0888C42.2741 55.8478 44.5403 54.2022 46.5366 52.1519L55.1965 61.2973C53.1462 63.4556 50.8261 65.344 48.2362 66.9627C45.6464 68.5274 42.9216 69.7414 40.062 70.6047C37.2563 71.468 34.4506 71.8996 31.6449 71.8996C27.3824 71.8996 23.4437 71.1712 19.8286 69.7144C16.2136 68.2037 13.0572 66.1264 10.3595 63.4825C7.71564 60.7848 5.63835 57.6554 4.1276 54.0943C2.61684 50.4793 1.86146 46.5675 1.86146 42.359C1.86146 38.2044 2.61684 34.3736 4.1276 30.8664C5.63835 27.3054 7.76959 24.2029 10.5213 21.5591C13.2731 18.9153 16.4834 16.865 20.1524 15.4082C23.8753 13.9514 27.895 13.223 32.2114 13.223C35.0171 13.223 37.8228 13.6277 40.6285 14.437C43.4342 15.1924 46.078 16.2985 48.5599 17.7553C51.0419 19.2121 53.2271 20.9386 55.1155 22.935L46.5366 33.1326ZM76.0501 26.6579C80.8521 26.6579 85.0336 27.5752 88.5947 29.4097C92.2097 31.2441 95.0154 33.834 97.0118 37.1792C99.0081 40.5245 100.006 44.4363 100.006 48.9146C100.006 53.3929 99.0081 57.3316 97.0118 60.7308C95.0154 64.0761 92.2097 66.6929 88.5947 68.5813C85.0336 70.4158 80.8521 71.3331 76.0501 71.3331C71.248 71.3331 67.0395 70.4158 63.4245 68.5813C59.8634 66.6929 57.0847 64.0761 55.0883 60.7308C53.146 57.3316 52.1748 53.3929 52.1748 48.9146C52.1748 44.4363 53.146 40.5245 55.0883 37.1792C57.0847 33.834 59.8634 31.2441 63.4245 29.4097C67.0395 27.5752 71.248 26.6579 76.0501 26.6579ZM76.0501 38.0695C74.1616 38.0695 72.516 38.5281 71.1131 39.4454C69.7103 40.3626 68.6042 41.6575 67.7949 43.3302C67.0395 45.0028 66.6618 46.9452 66.6618 49.1574C66.6618 51.3695 67.0395 53.3119 67.7949 54.9846C68.6042 56.6032 69.7103 57.8712 71.1131 58.7884C72.516 59.7057 74.1616 60.1643 76.0501 60.1643C77.9385 60.1643 79.5841 59.7057 80.987 58.7884C82.4438 57.8712 83.5499 56.6032 84.3053 54.9846C85.1146 53.3119 85.5192 51.3695 85.5192 49.1574C85.5192 46.9452 85.1146 45.0028 84.3053 43.3302C83.5499 41.6575 82.4438 40.3626 80.987 39.4454C79.5841 38.5281 77.9385 38.0695 76.0501 38.0695ZM130.979 39.5263C128.119 39.2026 125.61 39.4454 123.452 40.2547C121.348 41.064 119.702 42.305 118.515 43.9776C117.382 45.5963 116.816 47.5657 116.816 49.8858L113.417 49.2383C113.417 44.4902 114.118 40.4166 115.521 37.0174C116.978 33.6182 119.028 31.0283 121.672 29.2478C124.316 27.4133 127.418 26.4961 130.979 26.4961V39.5263ZM102.491 27.1435H116.897V70.8475H102.491V27.1435ZM159.847 45.1916C159.901 43.4111 159.577 41.9003 158.876 40.6594C158.228 39.3644 157.284 38.3663 156.043 37.6648C154.802 36.9634 153.372 36.6127 151.754 36.6127C149.865 36.6127 148.247 37.1253 146.898 38.1504C145.603 39.1216 144.578 40.4975 143.822 42.278C143.121 44.0046 142.77 46.0279 142.77 48.348C142.77 50.8839 143.202 53.0691 144.065 54.9036C144.928 56.7381 146.142 58.1679 147.707 59.1931C149.326 60.1643 151.187 60.6499 153.291 60.6499C157.176 60.6499 160.602 59.1661 163.57 56.1986L171.097 63.6444C168.884 66.0724 166.16 67.9609 162.922 69.3097C159.739 70.6586 156.097 71.3331 151.996 71.3331C147.248 71.3331 143.121 70.4158 139.614 68.5813C136.16 66.7469 133.49 64.157 131.601 60.8118C129.767 57.4665 128.85 53.5817 128.85 49.1574C128.85 44.6251 129.794 40.6863 131.682 37.3411C133.571 33.9419 136.241 31.3251 139.695 29.4906C143.148 27.6021 147.14 26.6579 151.673 26.6579C156.798 26.6579 161.034 27.737 164.379 29.8952C167.778 31.9995 170.26 35.021 171.825 38.9598C173.444 42.8985 174.091 47.5117 173.767 52.7994H140.747V45.1916H159.847Z" fill="url(#paint7_radial_2065_249)"/>
<path d="M46.5366 33.1326C44.7021 30.8125 42.5169 28.978 39.981 27.6291C37.4451 26.2802 34.9362 25.6058 32.4542 25.6058C30.296 25.6058 28.2727 26.0374 26.3842 26.9007C24.4958 27.7101 22.8502 28.8701 21.4473 30.3809C20.0445 31.8376 18.9654 33.5912 18.21 35.6415C17.4546 37.6379 17.0769 39.8231 17.0769 42.1971C17.0769 44.5711 17.4546 46.7833 18.21 48.8336C18.9654 50.83 20.0445 52.5835 21.4473 54.0943C22.8502 55.605 24.4958 56.7921 26.3842 57.6554C28.2727 58.4647 30.296 58.8694 32.4542 58.8694C34.8283 58.8694 37.2563 58.2758 39.7382 57.0888C42.2741 55.8478 44.5403 54.2022 46.5366 52.1519L55.1965 61.2973C53.1462 63.4556 50.8261 65.344 48.2362 66.9627C45.6464 68.5274 42.9216 69.7414 40.062 70.6047C37.2563 71.468 34.4506 71.8996 31.6449 71.8996C27.3824 71.8996 23.4437 71.1712 19.8286 69.7144C16.2136 68.2037 13.0572 66.1264 10.3595 63.4825C7.71564 60.7848 5.63835 57.6554 4.1276 54.0943C2.61684 50.4793 1.86146 46.5675 1.86146 42.359C1.86146 38.2044 2.61684 34.3736 4.1276 30.8664C5.63835 27.3054 7.76959 24.2029 10.5213 21.5591C13.2731 18.9153 16.4834 16.865 20.1524 15.4082C23.8753 13.9514 27.895 13.223 32.2114 13.223C35.0171 13.223 37.8228 13.6277 40.6285 14.437C43.4342 15.1924 46.078 16.2985 48.5599 17.7553C51.0419 19.2121 53.2271 20.9386 55.1155 22.935L46.5366 33.1326ZM76.0501 26.6579C80.8521 26.6579 85.0336 27.5752 88.5947 29.4097C92.2097 31.2441 95.0154 33.834 97.0118 37.1792C99.0081 40.5245 100.006 44.4363 100.006 48.9146C100.006 53.3929 99.0081 57.3316 97.0118 60.7308C95.0154 64.0761 92.2097 66.6929 88.5947 68.5813C85.0336 70.4158 80.8521 71.3331 76.0501 71.3331C71.248 71.3331 67.0395 70.4158 63.4245 68.5813C59.8634 66.6929 57.0847 64.0761 55.0883 60.7308C53.146 57.3316 52.1748 53.3929 52.1748 48.9146C52.1748 44.4363 53.146 40.5245 55.0883 37.1792C57.0847 33.834 59.8634 31.2441 63.4245 29.4097C67.0395 27.5752 71.248 26.6579 76.0501 26.6579ZM76.0501 38.0695C74.1616 38.0695 72.516 38.5281 71.1131 39.4454C69.7103 40.3626 68.6042 41.6575 67.7949 43.3302C67.0395 45.0028 66.6618 46.9452 66.6618 49.1574C66.6618 51.3695 67.0395 53.3119 67.7949 54.9846C68.6042 56.6032 69.7103 57.8712 71.1131 58.7884C72.516 59.7057 74.1616 60.1643 76.0501 60.1643C77.9385 60.1643 79.5841 59.7057 80.987 58.7884C82.4438 57.8712 83.5499 56.6032 84.3053 54.9846C85.1146 53.3119 85.5192 51.3695 85.5192 49.1574C85.5192 46.9452 85.1146 45.0028 84.3053 43.3302C83.5499 41.6575 82.4438 40.3626 80.987 39.4454C79.5841 38.5281 77.9385 38.0695 76.0501 38.0695ZM130.979 39.5263C128.119 39.2026 125.61 39.4454 123.452 40.2547C121.348 41.064 119.702 42.305 118.515 43.9776C117.382 45.5963 116.816 47.5657 116.816 49.8858L113.417 49.2383C113.417 44.4902 114.118 40.4166 115.521 37.0174C116.978 33.6182 119.028 31.0283 121.672 29.2478C124.316 27.4133 127.418 26.4961 130.979 26.4961V39.5263ZM102.491 27.1435H116.897V70.8475H102.491V27.1435ZM159.847 45.1916C159.901 43.4111 159.577 41.9003 158.876 40.6594C158.228 39.3644 157.284 38.3663 156.043 37.6648C154.802 36.9634 153.372 36.6127 151.754 36.6127C149.865 36.6127 148.247 37.1253 146.898 38.1504C145.603 39.1216 144.578 40.4975 143.822 42.278C143.121 44.0046 142.77 46.0279 142.77 48.348C142.77 50.8839 143.202 53.0691 144.065 54.9036C144.928 56.7381 146.142 58.1679 147.707 59.1931C149.326 60.1643 151.187 60.6499 153.291 60.6499C157.176 60.6499 160.602 59.1661 163.57 56.1986L171.097 63.6444C168.884 66.0724 166.16 67.9609 162.922 69.3097C159.739 70.6586 156.097 71.3331 151.996 71.3331C147.248 71.3331 143.121 70.4158 139.614 68.5813C136.16 66.7469 133.49 64.157 131.601 60.8118C129.767 57.4665 128.85 53.5817 128.85 49.1574C128.85 44.6251 129.794 40.6863 131.682 37.3411C133.571 33.9419 136.241 31.3251 139.695 29.4906C143.148 27.6021 147.14 26.6579 151.673 26.6579C156.798 26.6579 161.034 27.737 164.379 29.8952C167.778 31.9995 170.26 35.021 171.825 38.9598C173.444 42.8985 174.091 47.5117 173.767 52.7994H140.747V45.1916H159.847Z" fill="url(#paint8_radial_2065_249)"/>
<defs>
<radialGradient id="paint0_radial_2065_249" cx="0" cy="0" r="1" gradientUnits="userSpaceOnUse" gradientTransform="translate(423.887 0.84741) rotate(59.1724) scale(65.053 104.408)">
<stop stop-color="#2F00FF"/>
<stop offset="1" stop-color="#2F00FF" stop-opacity="0"/>
</radialGradient>
<radialGradient id="paint1_radial_2065_249" cx="0" cy="0" r="1" gradientUnits="userSpaceOnUse" gradientTransform="translate(396.554 27.9592) rotate(22.4715) scale(60.0451 43.6557)">
<stop stop-color="#FF0066"/>
<stop offset="1" stop-color="#FF0066" stop-opacity="0"/>
</radialGradient>
<radialGradient id="paint2_radial_2065_249" cx="0" cy="0" r="1" gradientUnits="userSpaceOnUse" gradientTransform="translate(472.784 41.3474) rotate(-158.182) scale(72.6481 47.063)">
<stop stop-color="#00F0E0"/>
<stop offset="1" stop-color="#00F0E0" stop-opacity="0"/>
</radialGradient>
<radialGradient id="paint3_radial_2065_249" cx="0" cy="0" r="1" gradientUnits="userSpaceOnUse" gradientTransform="translate(221.005 0.847471) rotate(59.1724) scale(65.053 104.408)">
<stop stop-color="#2F00FF"/>
<stop offset="1" stop-color="#2F00FF" stop-opacity="0"/>
</radialGradient>
<radialGradient id="paint4_radial_2065_249" cx="0" cy="0" r="1" gradientUnits="userSpaceOnUse" gradientTransform="translate(193.672 27.9593) rotate(22.4715) scale(60.0451 43.6557)">
<stop stop-color="#FF0066"/>
<stop offset="1" stop-color="#FF0066" stop-opacity="0"/>
</radialGradient>
<radialGradient id="paint5_radial_2065_249" cx="0" cy="0" r="1" gradientUnits="userSpaceOnUse" gradientTransform="translate(269.902 41.3475) rotate(-158.182) scale(72.6481 47.063)">
<stop stop-color="#00F0E0"/>
<stop offset="1" stop-color="#00F0E0" stop-opacity="0"/>
</radialGradient>
<radialGradient id="paint6_radial_2065_249" cx="0" cy="0" r="1" gradientUnits="userSpaceOnUse" gradientTransform="translate(41.3097 0.847471) rotate(59.1724) scale(65.053 104.408)">
<stop stop-color="#2F00FF"/>
<stop offset="1" stop-color="#2F00FF" stop-opacity="0"/>
</radialGradient>
<radialGradient id="paint7_radial_2065_249" cx="0" cy="0" r="1" gradientUnits="userSpaceOnUse" gradientTransform="translate(13.977 27.9593) rotate(22.4715) scale(60.0451 43.6557)">
<stop stop-color="#FF0066"/>
<stop offset="1" stop-color="#FF0066" stop-opacity="0"/>
</radialGradient>
<radialGradient id="paint8_radial_2065_249" cx="0" cy="0" r="1" gradientUnits="userSpaceOnUse" gradientTransform="translate(90.2068 41.3475) rotate(-158.182) scale(72.6481 47.063)">
<stop stop-color="#00F0E0"/>
<stop offset="1" stop-color="#00F0E0" stop-opacity="0"/>
</radialGradient>
</defs>
</svg>
