<svg width="394" height="804" viewBox="0 0 394 804" fill="none" xmlns="http://www.w3.org/2000/svg" xmlns:xlink="http://www.w3.org/1999/xlink">
<rect y="0.955078" width="391.032" height="802.087" rx="52.4124" fill="#0C0C0C"/>
<g filter="url(#filter0_f_2166_265)">
<rect x="3.82717" y="4.19387" width="383.376" height="795.609" rx="52.118" stroke="white" stroke-opacity="0.4" stroke-width="0.588904"/>
</g>
<g filter="url(#filter1_f_2166_265)">
<path fill-rule="evenodd" clip-rule="evenodd" d="M51.8236 13.0276C30.0323 13.0276 12.367 30.693 12.367 52.4842V745.624C12.367 770.83 32.8007 791.264 58.007 791.264V795.975C30.1988 795.975 7.65576 773.432 7.65576 745.624V52.4842C7.65576 28.091 27.4304 8.31641 51.8236 8.31641H340.681C367.839 8.31641 389.854 30.3321 389.854 57.4899H385.143C385.143 32.9341 365.237 13.0276 340.681 13.0276H51.8236Z" fill="url(#paint0_linear_2166_265)"/>
</g>
<g filter="url(#filter2_f_2166_265)">
<path fill-rule="evenodd" clip-rule="evenodd" d="M282.674 8.90527H339.209C363.602 8.90527 383.376 28.6799 383.376 53.0731V751.807C383.376 776.201 363.602 795.975 339.209 795.975H52.7069C28.3137 795.975 8.53906 776.201 8.53906 751.807V704.401H13.2503V751.807C13.2503 773.599 30.9156 791.264 52.7069 791.264H339.209C361 791.264 378.665 773.599 378.665 751.807V53.0731C378.665 31.2818 361 13.6165 339.209 13.6165H282.674V8.90527Z" fill="url(#paint1_linear_2166_265)"/>
<path fill-rule="evenodd" clip-rule="evenodd" d="M282.674 8.90527H339.209C363.602 8.90527 383.376 28.6799 383.376 53.0731V751.807C383.376 776.201 363.602 795.975 339.209 795.975H52.7069C28.3137 795.975 8.53906 776.201 8.53906 751.807V704.401H13.2503V751.807C13.2503 773.599 30.9156 791.264 52.7069 791.264H339.209C361 791.264 378.665 773.599 378.665 751.807V53.0731C378.665 31.2818 361 13.6165 339.209 13.6165H282.674V8.90527Z" fill="url(#paint2_radial_2166_265)"/>
</g>
<path d="M389.854 192.982H391.621C392.597 192.982 393.388 193.773 393.388 194.749V247.162C393.388 248.137 392.597 248.928 391.621 248.928H389.854V192.982Z" fill="#313232"/>
<path d="M389.854 192.982H391.621C392.597 192.982 393.388 193.773 393.388 194.749V247.162C393.388 248.137 392.597 248.928 391.621 248.928H389.854V192.982Z" fill="url(#paint3_linear_2166_265)"/>
<path d="M389.854 192.982H391.621C392.597 192.982 393.388 193.773 393.388 194.749V247.162C393.388 248.137 392.597 248.928 391.621 248.928H389.854V192.982Z" fill="url(#paint4_linear_2166_265)"/>
<path d="M389.854 192.982H391.621C392.597 192.982 393.388 193.773 393.388 194.749V247.162C393.388 248.137 392.597 248.928 391.621 248.928H389.854V192.982Z" fill="url(#paint5_radial_2166_265)"/>
<path d="M389.854 303.107H391.621C392.597 303.107 393.388 303.898 393.388 304.874V413.232C393.388 414.208 392.597 414.999 391.621 414.999H389.854V303.107Z" fill="#070707"/>
<rect x="19.7324" y="20.4336" width="352.165" height="763.219" rx="34.7453" fill="url(#pattern0_2166_265)"/>
<circle cx="345.917" cy="42.2074" r="12.9559" fill="black"/>
<circle cx="345.917" cy="41.3639" r="9.42246" fill="#0B0B0B"/>
<circle cx="345.916" cy="42.2074" r="5.30013" fill="#020202"/>
<path d="M347.523 39.3955C348.498 39.9538 349.155 41.0034 349.155 42.207C349.155 43.9959 347.705 45.4463 345.916 45.4463C345.531 45.4462 345.265 45.2776 345.087 45.0205C344.901 44.7527 344.806 44.3769 344.816 43.9814C344.827 43.5866 344.942 43.2045 345.137 42.9297C345.327 42.6616 345.587 42.502 345.916 42.502C346.526 42.502 346.997 42.2357 347.308 41.8359C347.613 41.4439 347.757 40.9351 347.757 40.4404C347.757 40.0828 347.68 39.7184 347.523 39.3955ZM345.916 38.9688C346.336 38.9688 346.639 39.1439 346.843 39.4062C347.053 39.6767 347.168 40.0518 347.168 40.4404C347.168 40.8291 347.053 41.2041 346.843 41.4746C346.639 41.737 346.336 41.9131 345.916 41.9131C345.362 41.9132 344.936 42.1946 344.656 42.5889C344.381 42.9764 344.24 43.4776 344.228 43.9658C344.217 44.353 344.289 44.752 344.455 45.0977C343.401 44.5635 342.678 43.47 342.678 42.207C342.678 40.4184 344.127 38.9689 345.916 38.9688Z" fill="url(#paint6_radial_2166_265)" fill-opacity="0.5"/>
<path d="M347.523 39.3955C348.498 39.9538 349.155 41.0034 349.155 42.207C349.155 43.9959 347.705 45.4463 345.916 45.4463C345.531 45.4462 345.265 45.2776 345.087 45.0205C344.901 44.7527 344.806 44.3769 344.816 43.9814C344.827 43.5866 344.942 43.2045 345.137 42.9297C345.327 42.6616 345.587 42.502 345.916 42.502C346.526 42.502 346.997 42.2357 347.308 41.8359C347.613 41.4439 347.757 40.9351 347.757 40.4404C347.757 40.0828 347.68 39.7184 347.523 39.3955ZM345.916 38.9688C346.336 38.9688 346.639 39.1439 346.843 39.4062C347.053 39.6767 347.168 40.0518 347.168 40.4404C347.168 40.8291 347.053 41.2041 346.843 41.4746C346.639 41.737 346.336 41.9131 345.916 41.9131C345.362 41.9132 344.936 42.1946 344.656 42.5889C344.381 42.9764 344.24 43.4776 344.228 43.9658C344.217 44.353 344.289 44.752 344.455 45.0977C343.401 44.5635 342.678 43.47 342.678 42.207C342.678 40.4184 344.127 38.9689 345.916 38.9688Z" fill="url(#paint7_radial_2166_265)"/>
<path d="M347.523 39.3955C348.498 39.9538 349.155 41.0034 349.155 42.207C349.155 43.9959 347.705 45.4463 345.916 45.4463C345.531 45.4462 345.265 45.2776 345.087 45.0205C344.901 44.7527 344.806 44.3769 344.816 43.9814C344.827 43.5866 344.942 43.2045 345.137 42.9297C345.327 42.6616 345.587 42.502 345.916 42.502C346.526 42.502 346.997 42.2357 347.308 41.8359C347.613 41.4439 347.757 40.9351 347.757 40.4404C347.757 40.0828 347.68 39.7184 347.523 39.3955ZM345.916 38.9688C346.336 38.9688 346.639 39.1439 346.843 39.4062C347.053 39.6767 347.168 40.0518 347.168 40.4404C347.168 40.8291 347.053 41.2041 346.843 41.4746C346.639 41.737 346.336 41.9131 345.916 41.9131C345.362 41.9132 344.936 42.1946 344.656 42.5889C344.381 42.9764 344.24 43.4776 344.228 43.9658C344.217 44.353 344.289 44.752 344.455 45.0977C343.401 44.5635 342.678 43.47 342.678 42.207C342.678 40.4184 344.127 38.9689 345.916 38.9688Z" fill="url(#paint8_radial_2166_265)"/>
<path d="M347.523 39.3955C348.498 39.9538 349.155 41.0034 349.155 42.207C349.155 43.9959 347.705 45.4463 345.916 45.4463C345.531 45.4462 345.265 45.2776 345.087 45.0205C344.901 44.7527 344.806 44.3769 344.816 43.9814C344.827 43.5866 344.942 43.2045 345.137 42.9297C345.327 42.6616 345.587 42.502 345.916 42.502C346.526 42.502 346.997 42.2357 347.308 41.8359C347.613 41.4439 347.757 40.9351 347.757 40.4404C347.757 40.0828 347.68 39.7184 347.523 39.3955ZM345.916 38.9688C346.336 38.9688 346.639 39.1439 346.843 39.4062C347.053 39.6767 347.168 40.0518 347.168 40.4404C347.168 40.8291 347.053 41.2041 346.843 41.4746C346.639 41.737 346.336 41.9131 345.916 41.9131C345.362 41.9132 344.936 42.1946 344.656 42.5889C344.381 42.9764 344.24 43.4776 344.228 43.9658C344.217 44.353 344.289 44.752 344.455 45.0977C343.401 44.5635 342.678 43.47 342.678 42.207C342.678 40.4184 344.127 38.9689 345.916 38.9688Z" stroke="#020202" stroke-width="0.588904"/>
<defs>
<filter id="filter0_f_2166_265" x="2.35491" y="2.72161" width="386.321" height="798.554" filterUnits="userSpaceOnUse" color-interpolation-filters="sRGB">
<feFlood flood-opacity="0" result="BackgroundImageFix"/>
<feBlend mode="normal" in="SourceGraphic" in2="BackgroundImageFix" result="shape"/>
<feGaussianBlur stdDeviation="0.588904" result="effect1_foregroundBlur_2166_265"/>
</filter>
<filter id="filter1_f_2166_265" x="6.47795" y="7.1386" width="384.554" height="790.015" filterUnits="userSpaceOnUse" color-interpolation-filters="sRGB">
<feFlood flood-opacity="0" result="BackgroundImageFix"/>
<feBlend mode="normal" in="SourceGraphic" in2="BackgroundImageFix" result="shape"/>
<feGaussianBlur stdDeviation="0.588904" result="effect1_foregroundBlur_2166_265"/>
</filter>
<filter id="filter2_f_2166_265" x="7.36125" y="7.72747" width="377.193" height="789.425" filterUnits="userSpaceOnUse" color-interpolation-filters="sRGB">
<feFlood flood-opacity="0" result="BackgroundImageFix"/>
<feBlend mode="normal" in="SourceGraphic" in2="BackgroundImageFix" result="shape"/>
<feGaussianBlur stdDeviation="0.588904" result="effect1_foregroundBlur_2166_265"/>
</filter>
<pattern id="pattern0_2166_265" patternContentUnits="objectBoundingBox" width="1" height="1">
<use xlink:href="#image0_2166_265" transform="matrix(0.00159121 0 0 0.000734214 -0.0123686 0)"/>
</pattern>
<linearGradient id="paint0_linear_2166_265" x1="10.0114" y1="331.625" x2="184.916" y2="411.715" gradientUnits="userSpaceOnUse">
<stop stop-color="white" stop-opacity="0.54"/>
<stop offset="0.947121" stop-color="white" stop-opacity="0"/>
</linearGradient>
<linearGradient id="paint1_linear_2166_265" x1="378.371" y1="425.555" x2="205.527" y2="344.286" gradientUnits="userSpaceOnUse">
<stop stop-color="white" stop-opacity="0.54"/>
<stop offset="1" stop-color="white" stop-opacity="0"/>
</linearGradient>
<radialGradient id="paint2_radial_2166_265" cx="0" cy="0" r="1" gradientUnits="userSpaceOnUse" gradientTransform="translate(368.359 782.43) rotate(-133.776) scale(214.504 101.48)">
<stop/>
<stop offset="1" stop-opacity="0"/>
</radialGradient>
<linearGradient id="paint3_linear_2166_265" x1="389.854" y1="221.839" x2="393.388" y2="221.839" gradientUnits="userSpaceOnUse">
<stop stop-color="#313131"/>
<stop offset="0.630208" stop-color="#717174"/>
<stop offset="1" stop-color="#444445"/>
</linearGradient>
<linearGradient id="paint4_linear_2166_265" x1="391.621" y1="192.982" x2="391.621" y2="248.928" gradientUnits="userSpaceOnUse">
<stop stop-color="#343434"/>
<stop offset="0.140406" stop-color="#353535" stop-opacity="0"/>
<stop offset="0.885417" stop-color="#494949" stop-opacity="0.525253"/>
<stop offset="1" stop-color="#1B1B1B"/>
</linearGradient>
<radialGradient id="paint5_radial_2166_265" cx="0" cy="0" r="1" gradientUnits="userSpaceOnUse" gradientTransform="translate(390.738 195.927) rotate(90) scale(2.06116 2.06116)">
<stop stop-color="white"/>
<stop offset="0.757464" stop-color="white" stop-opacity="0.35"/>
<stop offset="1" stop-color="white" stop-opacity="0"/>
</radialGradient>
<radialGradient id="paint6_radial_2166_265" cx="0" cy="0" r="1" gradientUnits="userSpaceOnUse" gradientTransform="translate(345.916 42.2073) rotate(90) scale(3.53342)">
<stop stop-color="#8EA1B9" stop-opacity="0"/>
<stop offset="0.395833" stop-color="#96A7BF" stop-opacity="0"/>
<stop offset="1" stop-color="#9BABC3"/>
</radialGradient>
<radialGradient id="paint7_radial_2166_265" cx="0" cy="0" r="1" gradientUnits="userSpaceOnUse" gradientTransform="translate(345.916 40.735) rotate(141.34) scale(1.88541)">
<stop stop-color="#8EA1B9"/>
<stop offset="1" stop-color="#90A2BA" stop-opacity="0"/>
</radialGradient>
<radialGradient id="paint8_radial_2166_265" cx="0" cy="0" r="1" gradientUnits="userSpaceOnUse" gradientTransform="translate(347.683 44.2684) rotate(-140.194) scale(2.29974)">
<stop stop-color="#A8CEFE"/>
<stop offset="1" stop-color="#90A2BA" stop-opacity="0"/>
</radialGradient>
</defs>
</svg>
